<svg width="24" height="24" viewBox="0 0 24 24" fill="none" xmlns="http://www.w3.org/2000/svg">
<path fill-rule="evenodd" clip-rule="evenodd" d="M11.325 13.6409C11.73 13.9226 12.27 13.9226 12.675 13.6409L20.8539 8.88811C21.0663 8.74052 21.0429 8.42193 20.8107 8.30673L12.5265 5.12352C12.1953 4.95883 11.8047 4.95883 11.4735 5.12352L3.18925 8.30673C2.95706 8.42103 2.93366 8.74052 3.14605 8.88811L11.325 13.6409ZM20.8107 12.9299L18.5734 11.8202L13.4211 14.8144C12.999 15.0925 12.5085 15.2383 12 15.2383C11.4915 15.2383 11.001 15.0916 10.5789 14.8144L5.43019 11.8184L3.18925 12.929C2.95706 13.0442 2.93366 13.3628 3.14605 13.5104L11.325 19.1883C11.73 19.47 12.27 19.47 12.675 19.1883L20.8539 13.5104C21.0663 13.3637 21.0429 13.0451 20.8107 12.9299Z" fill="#637381"/>
</svg>
