<svg width="24" height="24" viewBox="0 0 24 24" fill="none" xmlns="http://www.w3.org/2000/svg">
<path fill-rule="evenodd" clip-rule="evenodd" d="M12 20C7.58172 20 4 16.4183 4 12C4 7.58172 7.58172 4 12 4C16.4183 4 20 7.58172 20 12C20 14.1217 19.1571 16.1566 17.6569 17.6569C16.1566 19.1571 14.1217 20 12 20ZM7.66667 16C7.66667 16.3682 7.96514 16.6667 8.33333 16.6667H15.6667C16.0349 16.6667 16.3333 16.3682 16.3333 16V15.3333C16.3333 14.9651 16.0349 14.6667 15.6667 14.6667H8.33333C7.96514 14.6667 7.66667 14.9651 7.66667 15.3333V16ZM5.33333 12C5.33333 8.3181 8.3181 5.33333 12 5.33333C15.6819 5.33333 18.6666 8.31808 18.6667 12V12.0066C18.659 12.3761 18.3553 12.6705 17.9857 12.6666H13.1485L10.6136 7.2873C10.5064 7.06068 10.2474 6.94924 10.0091 7.0273C9.77094 7.11478 9.63152 7.36229 9.68017 7.61133L10.5438 12.6667H6.01417C5.64463 12.6706 5.34088 12.3761 5.33333 12.0067V12Z" fill="#637381"/>
</svg>
