<svg width="30" height="49" viewBox="0 0 30 49" fill="none" xmlns="http://www.w3.org/2000/svg">
<path d="M15 0C16.2933 0 17.3433 1.12 17.3433 2.499V2.373C21.2733 3.1745 22.9066 5.7715 24.2166 9.499H24.8433C25.62 9.499 26.25 10.395 26.25 11.501C26.25 12.6035 25.62 13.4995 24.8433 13.4995H22.5V20.4995H28.1266C29.16 20.4995 30 21.3955 30 22.5015V28.5005C30.0035 29.0262 29.8082 29.5319 29.457 29.9066C29.1058 30.2813 28.6273 30.4944 28.1266 30.499H22.5V43.9985H24.3733C25.0004 44.004 25.5998 44.2707 26.0398 44.7399C26.4798 45.2091 26.7244 45.8425 26.72 46.501C26.7235 47.1589 26.4785 47.7914 26.0386 48.2598C25.5987 48.7283 24.9998 48.9945 24.3733 49H5.62336C4.99714 48.9945 4.39863 48.7282 3.95926 48.2596C3.51989 47.791 3.2756 47.1585 3.28004 46.501C3.2756 45.8425 3.52024 45.2091 3.96023 44.7399C4.40023 44.2707 4.9996 44.004 5.6267 43.9985H7.50002V30.499H1.87338C1.37269 30.4944 0.894219 30.2813 0.542993 29.9066C0.191768 29.5319 -0.00350403 29.0262 4.76135e-05 28.5005V22.498C4.76135e-05 21.3955 0.840045 20.4995 1.87338 20.4995H7.50002V13.4995H5.1567C4.38003 13.4995 3.75004 12.6035 3.75004 11.501C3.75004 10.395 4.38003 9.499 5.1567 9.499H5.66003C6.93336 4.97 8.76669 3.899 12.6567 2.373V2.499C12.6567 1.12 13.7067 0 15 0Z" fill="#212B36"/>
</svg>
