<svg width="42" height="42" viewBox="0 0 42 42" fill="none" xmlns="http://www.w3.org/2000/svg">
<path d="M8.8878 24.2594C8.5505 24.5965 8.361 25.053 8.361 25.5288C8.361 26.0047 8.5505 26.4611 8.8878 26.7982L11.4372 29.337L3.7888 37.0238L2.4787 35.7192C1.0525 34.3886 0.1698 32.5804 0 30.6416V25.5288C0.1613 23.5775 1.0446 21.7554 2.4787 20.416L20.4312 2.5388C21.765 1.0847 23.5962 0.1793 25.5656 0H30.7C32.6694 0.1793 34.5006 1.0847 35.8343 2.5388L37.1091 3.8082L29.4252 11.495L26.8404 8.921C26.5019 8.5851 26.0435 8.3965 25.5656 8.3965C25.0877 8.3965 24.6294 8.5851 24.2909 8.921L8.8878 24.2594ZM7.5422 40.9025C7.8626 41.2383 8.2462 41.508 8.6712 41.6961C9.0962 41.8842 9.5543 41.9871 10.0192 41.9989C10.4842 42.0106 10.9469 41.9311 11.381 41.7648C11.8151 41.5984 12.212 41.3486 12.5491 41.0295L12.6766 40.9025L15.2261 38.3637C15.5633 38.0447 15.834 37.6627 16.0229 37.2395C16.2119 36.8163 16.3152 36.3601 16.327 35.8971C16.3388 35.4341 16.259 34.9733 16.0919 34.5411C15.9249 34.1088 15.674 33.7135 15.3535 33.3779L15.2261 33.2509L7.5422 40.9025ZM33.2141 15.2327C33.5344 15.5684 33.918 15.8381 34.343 16.0262C34.7681 16.2143 35.2261 16.3172 35.6911 16.329C36.156 16.3408 36.6188 16.2612 37.0529 16.0949C37.4869 15.9286 37.8839 15.6787 38.2209 15.3596L40.8979 12.6939C41.2351 12.3749 41.5059 11.9929 41.6948 11.5696C41.8837 11.1464 41.987 10.6902 41.9989 10.2272C42.0107 9.7642 41.9308 9.3035 41.7638 8.8712C41.5967 8.4389 41.3458 8.0437 41.0254 7.708L40.8979 7.5811L33.2141 15.2327Z" fill="#212B36"/>
</svg>
