<svg width="68" height="62" viewBox="0 0 68 62" fill="none" xmlns="http://www.w3.org/2000/svg">
<path d="M6.32231 58.192C5.61831 58.192 4.97298 58.0693 4.38631 57.824C3.81031 57.568 3.31431 57.2053 2.89831 56.736C2.48231 56.2667 2.15698 55.696 1.92231 55.024C1.69831 54.352 1.58631 53.5893 1.58631 52.736C1.58631 51.8827 1.69831 51.1253 1.92231 50.464C2.15698 49.792 2.48231 49.232 2.89831 48.784C3.31431 48.3253 3.81031 47.9787 4.38631 47.744C4.97298 47.4987 5.61831 47.376 6.32231 47.376C7.02631 47.376 7.66631 47.4987 8.24231 47.744C8.82898 47.9787 9.33031 48.3253 9.74631 48.784C10.1623 49.2427 10.4823 49.808 10.7063 50.48C10.941 51.1413 11.0583 51.8933 11.0583 52.736C11.0583 53.5893 10.941 54.352 10.7063 55.024C10.4823 55.696 10.1623 56.2667 9.74631 56.736C9.33031 57.2053 8.82898 57.568 8.24231 57.824C7.66631 58.0693 7.02631 58.192 6.32231 58.192ZM6.32231 56.16C7.03698 56.16 7.60231 55.856 8.01831 55.248C8.43431 54.6293 8.64231 53.792 8.64231 52.736C8.64231 51.6907 8.43431 50.8747 8.01831 50.288C7.60231 49.7013 7.03698 49.408 6.32231 49.408C5.60764 49.408 5.04231 49.7013 4.62631 50.288C4.21031 50.8747 4.00231 51.6907 4.00231 52.736C4.00231 53.792 4.21031 54.6293 4.62631 55.248C5.04231 55.856 5.60764 56.16 6.32231 56.16ZM15.8838 58.192C15.2011 58.192 14.5185 58.0693 13.8358 57.824C13.1638 57.568 12.5611 57.1893 12.0278 56.688L13.3718 55.072C13.7451 55.392 14.1558 55.6533 14.6038 55.856C15.0625 56.0587 15.5105 56.16 15.9478 56.16C16.4385 56.16 16.8011 56.0693 17.0358 55.888C17.2811 55.7067 17.4038 55.4613 17.4038 55.152C17.4038 54.992 17.3665 54.8533 17.2918 54.736C17.2278 54.6187 17.1265 54.5173 16.9878 54.432C16.8598 54.336 16.6998 54.2507 16.5078 54.176C16.3265 54.0907 16.1238 54 15.8998 53.904L14.5398 53.328C14.2731 53.2213 14.0118 53.0827 13.7558 52.912C13.5105 52.7413 13.2865 52.544 13.0838 52.32C12.8918 52.0853 12.7371 51.8187 12.6198 51.52C12.5025 51.2107 12.4438 50.864 12.4438 50.48C12.4438 50.0533 12.5345 49.6533 12.7158 49.28C12.8971 48.896 13.1531 48.5653 13.4838 48.288C13.8145 48 14.2038 47.776 14.6518 47.616C15.1105 47.456 15.6118 47.376 16.1558 47.376C16.7638 47.376 17.3611 47.4933 17.9478 47.728C18.5451 47.9627 19.0678 48.304 19.5158 48.752L18.3158 50.24C17.9745 49.9733 17.6331 49.7707 17.2918 49.632C16.9505 49.4827 16.5718 49.408 16.1558 49.408C15.7505 49.408 15.4251 49.4933 15.1798 49.664C14.9451 49.824 14.8278 50.0533 14.8278 50.352C14.8278 50.512 14.8651 50.6507 14.9398 50.768C15.0251 50.8747 15.1371 50.976 15.2758 51.072C15.4251 51.1573 15.5958 51.2427 15.7878 51.328C15.9798 51.4027 16.1878 51.488 16.4118 51.584L17.7558 52.128C18.3958 52.384 18.8971 52.736 19.2598 53.184C19.6331 53.632 19.8198 54.224 19.8198 54.96C19.8198 55.3973 19.7291 55.8133 19.5478 56.208C19.3771 56.592 19.1211 56.9333 18.7798 57.232C18.4491 57.52 18.0385 57.7547 17.5478 57.936C17.0571 58.1067 16.5025 58.192 15.8838 58.192ZM21.2704 58V47.568H23.8464L25.5264 52.208C25.6331 52.5173 25.7344 52.8373 25.8304 53.168C25.9264 53.488 26.0278 53.808 26.1344 54.128H26.1984C26.3051 53.808 26.4011 53.488 26.4864 53.168C26.5824 52.8373 26.6838 52.5173 26.7904 52.208L28.4384 47.568H30.9984V58H28.8544V54.176C28.8544 53.92 28.8651 53.6373 28.8864 53.328C28.9078 53.0187 28.9344 52.7093 28.9664 52.4C28.9984 52.08 29.0304 51.7707 29.0624 51.472C29.0944 51.1627 29.1264 50.88 29.1584 50.624H29.0944L28.2464 53.104L26.7584 57.088H25.4624L23.9744 53.104L23.1424 50.624H23.0784C23.1104 50.88 23.1424 51.1627 23.1744 51.472C23.2064 51.7707 23.2384 52.08 23.2704 52.4C23.3024 52.7093 23.3291 53.0187 23.3504 53.328C23.3718 53.6373 23.3824 53.92 23.3824 54.176V58H21.2704ZM32.9459 58V50.064H35.2979V58H32.9459ZM34.1139 48.896C33.7193 48.896 33.3939 48.784 33.1379 48.56C32.8819 48.3253 32.7539 48.0267 32.7539 47.664C32.7539 47.3013 32.8819 47.008 33.1379 46.784C33.3939 46.56 33.7193 46.448 34.1139 46.448C34.5193 46.448 34.8446 46.56 35.0899 46.784C35.3459 47.008 35.4739 47.3013 35.4739 47.664C35.4739 48.0267 35.3459 48.3253 35.0899 48.56C34.8446 48.784 34.5193 48.896 34.1139 48.896ZM39.2078 58.192C38.8025 58.192 38.4611 58.128 38.1838 58C37.9065 57.872 37.6825 57.696 37.5118 57.472C37.3518 57.2373 37.2345 56.96 37.1598 56.64C37.0851 56.3093 37.0478 55.9413 37.0478 55.536V46.784H39.3998V55.632C39.3998 55.8773 39.4425 56.048 39.5278 56.144C39.6238 56.24 39.7198 56.288 39.8158 56.288C39.8691 56.288 39.9118 56.288 39.9438 56.288C39.9865 56.288 40.0398 56.2773 40.1038 56.256L40.3918 58C40.2638 58.0533 40.0985 58.096 39.8958 58.128C39.7038 58.1707 39.4745 58.192 39.2078 58.192ZM43.4659 58.192C43.0606 58.192 42.7193 58.128 42.4419 58C42.1646 57.872 41.9406 57.696 41.7699 57.472C41.6099 57.2373 41.4926 56.96 41.4179 56.64C41.3433 56.3093 41.3059 55.9413 41.3059 55.536V46.784H43.6579V55.632C43.6579 55.8773 43.7006 56.048 43.7859 56.144C43.8819 56.24 43.9779 56.288 44.0739 56.288C44.1273 56.288 44.1699 56.288 44.2019 56.288C44.2446 56.288 44.2979 56.2773 44.3619 56.256L44.6499 58C44.5219 58.0533 44.3566 58.096 44.1539 58.128C43.9619 58.1707 43.7326 58.192 43.4659 58.192ZM47.5641 58.192C47.2014 58.192 46.8707 58.128 46.5721 58C46.2841 57.8827 46.0387 57.7173 45.8361 57.504C45.6334 57.28 45.4734 57.024 45.3561 56.736C45.2494 56.448 45.1961 56.1333 45.1961 55.792C45.1961 54.96 45.5481 54.3093 46.2521 53.84C46.9561 53.3707 48.0921 53.056 49.6601 52.896C49.6387 52.544 49.5321 52.2667 49.3401 52.064C49.1587 51.8507 48.8494 51.744 48.4121 51.744C48.0707 51.744 47.7294 51.808 47.3881 51.936C47.0574 52.064 46.7001 52.24 46.3161 52.464L45.4681 50.912C45.9801 50.6027 46.5134 50.352 47.0681 50.16C47.6334 49.968 48.2307 49.872 48.8601 49.872C49.8841 49.872 50.6627 50.1653 51.1961 50.752C51.7401 51.328 52.0121 52.2293 52.0121 53.456V58H50.0921L49.9321 57.184H49.8681C49.5267 57.4827 49.1694 57.728 48.7961 57.92C48.4227 58.1013 48.0121 58.192 47.5641 58.192ZM48.3641 56.368C48.6307 56.368 48.8601 56.3093 49.0521 56.192C49.2441 56.0747 49.4467 55.9093 49.6601 55.696V54.304C48.8281 54.4213 48.2521 54.592 47.9321 54.816C47.6121 55.04 47.4521 55.3067 47.4521 55.616C47.4521 55.872 47.5321 56.064 47.6921 56.192C47.8627 56.3093 48.0867 56.368 48.3641 56.368ZM53.6816 58V50.064H55.6016L55.7616 51.456H55.8256C56.1136 50.912 56.4602 50.512 56.8656 50.256C57.2709 50 57.6762 49.872 58.0816 49.872C58.3056 49.872 58.4869 49.888 58.6256 49.92C58.7749 49.9413 58.9082 49.9787 59.0256 50.032L58.6416 52.064C58.4922 52.0213 58.3536 51.9893 58.2256 51.968C58.0976 51.9467 57.9482 51.936 57.7776 51.936C57.4789 51.936 57.1642 52.0427 56.8336 52.256C56.5136 52.4693 56.2469 52.848 56.0336 53.392V58H53.6816ZM60.7259 61.104C60.4806 61.104 60.2726 61.088 60.1019 61.056C59.9313 61.0347 59.7659 60.9973 59.6059 60.944L60.0219 59.152C60.0966 59.1733 60.1819 59.1947 60.2779 59.216C60.3739 59.2373 60.4646 59.248 60.5499 59.248C60.9446 59.248 61.2486 59.152 61.4619 58.96C61.6753 58.768 61.8353 58.5173 61.9419 58.208L62.0539 57.792L58.9979 50.064H61.3659L62.5019 53.472C62.6193 53.8347 62.7259 54.2027 62.8219 54.576C62.9179 54.9493 63.0193 55.3333 63.1259 55.728H63.1899C63.2753 55.3547 63.3606 54.9813 63.4459 54.608C63.5419 54.224 63.6379 53.8453 63.7339 53.472L64.6939 50.064H66.9499L64.1979 58.08C64.0059 58.5813 63.8033 59.0187 63.5899 59.392C63.3873 59.776 63.1473 60.0907 62.8699 60.336C62.6033 60.592 62.2939 60.784 61.9419 60.912C61.6006 61.04 61.1953 61.104 60.7259 61.104Z" fill="#212B36"/>
<path fill-rule="evenodd" clip-rule="evenodd" d="M15.7934 13.4061C14.8723 13.6688 14.7387 14.6986 15.4687 15.095C15.7296 15.2366 26.4994 20.9516 26.9384 21.1834C27.3775 21.4152 27.9002 21.2844 28.1663 20.8917C28.3199 20.6651 28.7432 19.9671 29.0738 19.4171C29.3162 19.0139 29.086 18.4448 28.6721 18.2476C28.4225 18.1287 26.8646 17.2978 25.6262 16.6372C24.8108 16.2023 24.1338 15.8412 24.0599 15.8059C23.1688 15.3796 23.4896 14.3674 24.1496 14.1485L27.4923 13.0399C27.8282 12.9285 28.1158 12.6416 28.2293 12.3083L29.3398 9.04599C29.6777 8.0534 30.683 8.28908 31.0167 8.90321C31.2848 9.3966 31.7092 10.1585 32.135 10.9228C32.7694 12.0618 33.4068 13.206 33.534 13.4745C33.7465 13.923 34.1926 14.1246 34.6581 13.835C34.7671 13.7672 34.9625 13.6523 35.1859 13.5209C35.4896 13.3423 35.845 13.1332 36.1057 12.9706C36.5583 12.6884 36.6869 12.199 36.4873 11.7572C36.3499 11.4532 33.5899 6.42751 31.8324 3.22702C31.0356 1.77617 30.4448 0.700398 30.3977 0.609624C29.9726 -0.209696 28.9297 -0.206591 28.6415 0.639734L25.5617 9.68689C25.4456 10.0281 25.1756 10.2954 24.8298 10.4116C22.9118 11.0563 16.5739 13.1835 15.7934 13.4061ZM44.657 30.5472C44.2242 30.3135 30.5113 23.0479 29.9458 22.7587C29.3803 22.4695 29.2425 21.9724 29.5451 21.4337C29.699 21.1597 30.0326 20.6132 30.3045 20.1728C30.6784 19.5671 31.2233 19.5653 31.5309 19.7449C31.7218 19.8563 33.4693 20.7808 34.8361 21.5038C35.6727 21.9464 36.3666 22.3135 36.4735 22.3724C37.1383 22.739 38.1186 21.8997 37.6789 21.1643C37.4689 20.8131 35.6342 17.4619 35.0513 16.3574C34.7861 15.8548 34.8586 15.4028 35.4498 15.102C35.7424 14.9531 36.2658 14.6424 36.7199 14.3665C37.1835 14.0848 37.8005 14.2965 38.0514 14.7163C38.2168 14.9931 41.5034 21.0477 43.7906 25.261C44.9715 27.4365 45.8859 29.1211 45.9667 29.266C46.4374 30.1107 45.522 31.0142 44.657 30.5472Z" fill="#05CB63"/>
</svg>
