<svg width="91" height="125" viewBox="0 0 91 125" fill="none" xmlns="http://www.w3.org/2000/svg">
<path d="M45.1769 0.5C20.459 0.5 0.5 20.459 0.5 45.1769C0.5 53.2139 2.90302 61.4087 7.08995 68.801L36.5364 119.765C38.183 122.734 41.5785 124.5 45.1769 124.5C48.7104 124.5 51.985 122.772 53.8218 119.757L83.2626 68.8335C87.4898 61.4273 89.8539 53.3774 89.8539 45.2066C89.8539 20.4833 69.8889 0.5 45.1769 0.5Z" fill="white" stroke="#090909"/>
<path d="M59.6333 26.5385H70.2333L64.9333 40.6923H72L57.8667 65.4615L61.4 47.7692H54.3333L59.6333 26.5385ZM38.4333 31.8462V26.5385C38.4333 25.6 38.8056 24.7 39.4682 24.0364C40.1309 23.3728 41.0296 23 41.9667 23C42.9038 23 43.8025 23.3728 44.4651 24.0364C45.1277 24.7 45.5 25.6 45.5 26.5385V31.8462H54.3333L52.92 37.1538H45.5V69H38.4333V37.1538H19V31.8462H38.4333ZM22.5333 26.5385H29.6V30.0769H22.5333V26.5385Z" fill="#FF26D4"/>
</svg>
