<svg width="91" height="125" viewBox="0 0 91 125" fill="none" xmlns="http://www.w3.org/2000/svg">
<path d="M45.1769 0.5C20.459 0.5 0.5 20.459 0.5 45.1769C0.5 53.2139 2.90302 61.4087 7.08995 68.801L36.5364 119.765C38.183 122.734 41.5785 124.5 45.1769 124.5C48.7104 124.5 51.985 122.772 53.8218 119.757L83.2626 68.8335C87.4898 61.4273 89.8539 53.3774 89.8539 45.2066C89.8539 20.4833 69.8889 0.5 45.1769 0.5Z" fill="#BD0699" stroke="#090909"/>
<path d="M62.0155 39.5135L57.5082 66.6112C57.3625 67.4133 56.6696 67.997 55.86 68H35.14C34.3304 67.997 33.6375 67.4133 33.4918 66.6112L28.9845 39.5135C28.8359 38.5901 29.4588 37.7203 30.3754 37.5706C30.4605 37.5567 30.5466 37.5496 30.6327 37.5489H60.3336C61.2623 37.5367 62.0249 38.2853 62.037 39.2205C62.0383 39.3187 62.0309 39.4166 62.0155 39.5135ZM64 32.4681C64 33.4033 63.2469 34.1617 62.3182 34.1617H28.6818C27.7531 34.1617 27 33.4033 27 32.4681C27 31.5328 27.7531 30.7744 28.6818 30.7744H37.0909V25.6936C37.0909 24.7584 37.844 24 38.7727 24H52.2273C53.156 24 53.9091 24.7584 53.9091 25.6936V30.7744H62.3182C63.2469 30.7744 64 31.5328 64 32.4681ZM50.5455 30.7744V27.3872H40.4545V30.7744H50.5455Z" fill="white"/>
</svg>
