<svg width="91" height="125" viewBox="0 0 91 125" fill="none" xmlns="http://www.w3.org/2000/svg">
<path d="M45.1769 0.5C20.459 0.5 0.5 20.459 0.5 45.1769C0.5 53.2139 2.90302 61.4087 7.08995 68.801L36.5364 119.765C38.183 122.734 41.5785 124.5 45.1769 124.5C48.7104 124.5 51.985 122.772 53.8218 119.757L83.2626 68.8335C87.4898 61.4273 89.8539 53.3774 89.8539 45.2066C89.8539 20.4833 69.8889 0.5 45.1769 0.5Z" fill="#BD0699" stroke="#090909"/>
<path d="M45.8408 71C35.6784 70.4118 27.5752 62.3691 27 52.3C27 42.44 41.5853 25.644 45.8408 20C50.0963 25.644 63 42.406 63 52.266C63 62.126 55.0381 71 45.8408 71Z" fill="white"/>
</svg>
