<svg width="91" height="125" viewBox="0 0 91 125" fill="none" xmlns="http://www.w3.org/2000/svg">
<path d="M45.1769 0.5C20.459 0.5 0.5 20.459 0.5 45.1769C0.5 53.2139 2.90302 61.4087 7.08995 68.801L36.5364 119.765C38.183 122.734 41.5785 124.5 45.1769 124.5C48.7104 124.5 51.985 122.772 53.8218 119.757L83.2626 68.8335C87.4898 61.4273 89.8539 53.3774 89.8539 45.2066C89.8539 20.4833 69.8889 0.5 45.1769 0.5Z" fill="white" stroke="#090909"/>
<path d="M57.9063 49.0886C54.5775 51.5947 50.4891 52.8456 46.347 52.6253H36.7433V69H27V23.0234H46.9756C50.9236 22.8095 54.8122 24.0674 57.9063 26.5601C60.8122 29.4414 62.2866 33.4923 61.9224 37.5945C62.3662 41.8434 60.8904 46.0679 57.9063 49.0886ZM50.5726 32.5724C49.0898 31.4732 47.2731 30.9349 45.439 31.0516H36.7433V44.5617H45.439C47.2951 44.677 49.1268 44.0839 50.5726 42.8994C51.8979 41.5035 52.5607 39.5941 52.3886 37.6652C52.5772 35.7766 51.9091 33.9032 50.5726 32.5724Z" fill="#FF26D4"/>
</svg>
