<svg width="91" height="125" viewBox="0 0 91 125" fill="none" xmlns="http://www.w3.org/2000/svg">
<path d="M45.1769 0.5C20.459 0.5 0.5 20.459 0.5 45.1769C0.5 53.2139 2.90302 61.4087 7.08995 68.801L36.5364 119.765C38.183 122.734 41.5785 124.5 45.1769 124.5C48.7104 124.5 51.985 122.772 53.8218 119.757L83.2626 68.8335C87.4898 61.4273 89.8539 53.3774 89.8539 45.2066C89.8539 20.4833 69.8889 0.5 45.1769 0.5Z" fill="white" stroke="#090909"/>
<path d="M61.0155 39.5135L56.5082 66.6112C56.3625 67.4133 55.6696 67.997 54.86 68H34.14C33.3304 67.997 32.6375 67.4133 32.4918 66.6112L27.9845 39.5135C27.8359 38.5901 28.4588 37.7203 29.3754 37.5706C29.4605 37.5567 29.5466 37.5496 29.6327 37.5489H59.3336C60.2623 37.5367 61.0249 38.2853 61.037 39.2205C61.0383 39.3187 61.0309 39.4166 61.0155 39.5135ZM63 32.4681C63 33.4033 62.2469 34.1617 61.3182 34.1617H27.6818C26.7531 34.1617 26 33.4033 26 32.4681C26 31.5328 26.7531 30.7744 27.6818 30.7744H36.0909V25.6936C36.0909 24.7584 36.844 24 37.7727 24H51.2273C52.156 24 52.9091 24.7584 52.9091 25.6936V30.7744H61.3182C62.2469 30.7744 63 31.5328 63 32.4681ZM49.5455 30.7744V27.3872H39.4545V30.7744H49.5455Z" fill="black"/>
</svg>
