<svg width="91" height="125" viewBox="0 0 91 125" fill="none" xmlns="http://www.w3.org/2000/svg">
<path d="M45.1769 0.5C20.459 0.5 0.5 20.459 0.5 45.1769C0.5 53.2139 2.90302 61.4087 7.08995 68.801L36.5364 119.765C38.183 122.734 41.5785 124.5 45.1769 124.5C48.7104 124.5 51.985 122.772 53.8218 119.757L83.2626 68.8335C87.4898 61.4273 89.8539 53.3774 89.8539 45.2066C89.8539 20.4833 69.8889 0.5 45.1769 0.5Z" fill="white" stroke="#090909"/>
<path d="M67.9818 39.6V59.4C67.9818 61.3883 66.3638 63 64.3678 63H24.614C22.618 63 21 61.3883 21 59.4V39.6C21 38.606 21.8092 37.8 22.807 37.8C23.0571 37.7453 23.3158 37.7453 23.5659 37.8L44.4909 52.2L65.452 37.8C65.6905 37.7503 65.9363 37.7503 66.1748 37.8C67.1726 37.8 67.9818 38.606 67.9818 39.6ZM21.9035 30.312L22.1926 30.6L44.4909 45L66.8615 30.6H67.0783C67.7274 30.2468 68.0873 29.529 67.9818 28.8C67.9818 27.806 67.1726 27 66.1748 27H22.807C21.8092 27 21 27.806 21 28.8C21.0094 29.4282 21.3534 30.0042 21.9035 30.312Z" fill="#FF26D4"/>
</svg>
