<?xml version="1.0" encoding="UTF-8"?>
<svg width="91px" height="125px" viewBox="0 0 91 125" version="1.1" xmlns="http://www.w3.org/2000/svg" xmlns:xlink="http://www.w3.org/1999/xlink">
    <!-- Generator: Sketch 51.1 (57501) - http://www.bohemiancoding.com/sketch -->
    <title>Artboard</title>
    <desc>Created with Sketch.</desc>
    <defs></defs>
    <g id="Artboard" stroke="none" stroke-width="1" fill="none" fill-rule="evenodd">
        <g id="marker" fill="#FFFFFF" fill-rule="nonzero" stroke="#090909">
            <path d="M45.1769314,0.5 C20.4590046,0.5 0.5,20.4590046 0.5,45.1769314 C0.5,53.2138714 2.90302334,61.4087201 7.08994543,68.8009647 L36.5364483,119.764754 C38.1830455,122.734028 41.5785286,124.5 45.1769314,124.5 C48.7103902,124.5 51.9850459,122.772323 53.8218155,119.756982 L83.2626023,68.8335139 C87.48984,61.4273278 89.8538628,53.3774122 89.8538628,45.2065854 C89.8538628,20.4832821 69.8888819,0.5 45.1769314,0.5 Z" id="Shape"></path>
        </g>
        <g id="bicycle-15" transform="translate(15.000000, 22.000000)" fill="#000000" fill-rule="nonzero">
            <path d="M30.5,0.000292323431 C27.7505267,-0.0397074108 27.7505267,4.03866549 30.5,4.00026575 L36.6,4.00026575 L36.6,9.06263212 L25.2023533,18.3985701 L21.2385733,8.00023917 L22.3666667,8.00023917 C25.11614,8.04023891 25.11614,3.961866 22.3666667,4.00026575 L14.2333333,4.00026575 C11.48386,3.96026601 11.48386,8.03863892 14.2333333,8.00023917 L16.88602,8.00023917 L20.5082,17.5001761 C18.6058133,16.5697822 16.4939933,16.000186 14.2333333,16.000186 C6.39646,16.000186 0,22.2917442 0,30.000093 C0,37.7084418 6.39646,44 14.2333333,44 C22.0702067,44 28.4666667,37.7084418 28.4666667,30.000093 C28.4666667,27.3205108 27.6521133,24.8357273 26.31418,22.7033415 L37.7834,13.3050039 L39.66586,17.9457731 C35.42636,20.374957 32.5333333,24.8449273 32.5333333,30.000093 C32.5333333,37.7084418 38.9297933,44 46.7666667,44 C54.60354,44 61,37.7084418 61,30.000093 C61,22.2917442 54.60354,16.000186 46.7666667,16.000186 C45.6153933,16.000186 44.5121067,16.1737849 43.4385067,16.4297832 L40.6666667,9.60942848 L40.6666667,2.00027904 C40.6666667,0.895886373 39.75614,0.000292323431 38.6333333,0.000292323431 L30.5,0.000292323431 Z M14.2333333,20.0001594 C16.64202,20.0001594 18.8189067,20.8477538 20.55578,22.2109448 L12.93078,28.4609032 C10.85312,30.1700919 13.4505,33.2388715 15.5358867,31.5388828 L23.1608867,25.2889243 C23.9262333,26.696115 24.4,28.2845044 24.4,30.000093 C24.4,35.5464562 19.8721733,40.0000266 14.2333333,40.0000266 C8.59449333,40.0000266 4.06666667,35.5464562 4.06666667,30.000093 C4.06666667,24.4537299 8.59408667,20.0001594 14.2333333,20.0001594 Z M46.7666667,20.0001594 C52.4055067,20.0001594 56.9333333,24.4537299 56.9333333,30.000093 C56.9333333,35.5464562 52.4055067,40.0000266 46.7666667,40.0000266 C41.1278267,40.0000266 36.6,35.5464562 36.6,30.000093 C36.6,26.4921163 38.4169867,23.4317367 41.175,21.6485485 L44.87648,30.7420881 C45.87688,33.2344715 49.6767733,31.7424814 48.65726,29.2576979 L44.9639133,20.1797583 C45.5503267,20.0773589 46.14894,20.0001594 46.7666667,20.0001594 Z" id="path4668"></path>
        </g>
    </g>
</svg>