<svg width="91" height="125" viewBox="0 0 91 125" fill="none" xmlns="http://www.w3.org/2000/svg">
<path d="M45.1769 0.5C20.459 0.5 0.5 20.459 0.5 45.1769C0.5 53.2139 2.90302 61.4087 7.08995 68.801L36.5364 119.765C38.183 122.734 41.5785 124.5 45.1769 124.5C48.7104 124.5 51.985 122.772 53.8218 119.757L83.2626 68.8335C87.4898 61.4273 89.8539 53.3774 89.8539 45.2066C89.8539 20.4833 69.8889 0.5 45.1769 0.5Z" fill="#FF26D4" stroke="#090909"/>
<path d="M45.5 19.0003C42.7505 18.9603 42.7505 23.0387 45.5 23.0003H51.6V28.0626L40.2024 37.3986L36.2386 27.0002H37.3667C40.1161 27.0402 40.1161 22.9619 37.3667 23.0003H29.2333C26.4839 22.9603 26.4839 27.0386 29.2333 27.0002H31.886L35.5082 36.5002C33.6058 35.5698 31.494 35.0002 29.2333 35.0002C21.3965 35.0002 15 41.2917 15 49.0001C15 56.7084 21.3965 63 29.2333 63C37.0702 63 43.4667 56.7084 43.4667 49.0001C43.4667 46.3205 42.6521 43.8357 41.3142 41.7033L52.7834 32.305L54.6659 36.9458C50.4264 39.375 47.5333 43.8449 47.5333 49.0001C47.5333 56.7084 53.9298 63 61.7667 63C69.6035 63 76 56.7084 76 49.0001C76 41.2917 69.6035 35.0002 61.7667 35.0002C60.6154 35.0002 59.5121 35.1738 58.4385 35.4298L55.6667 28.6094V21.0003C55.6667 19.8959 54.7561 19.0003 53.6333 19.0003H45.5ZM29.2333 39.0002C31.642 39.0002 33.8189 39.8478 35.5558 41.2109L27.9308 47.4609C25.8531 49.1701 28.4505 52.2389 30.5359 50.5389L38.1609 44.2889C38.9262 45.6961 39.4 47.2845 39.4 49.0001C39.4 54.5465 34.8722 59 29.2333 59C23.5945 59 19.0667 54.5465 19.0667 49.0001C19.0667 43.4537 23.5941 39.0002 29.2333 39.0002ZM61.7667 39.0002C67.4055 39.0002 71.9333 43.4537 71.9333 49.0001C71.9333 54.5465 67.4055 59 61.7667 59C56.1278 59 51.6 54.5465 51.6 49.0001C51.6 45.4921 53.417 42.4317 56.175 40.6485L59.8765 49.7421C60.8769 52.2345 64.6768 50.7425 63.6573 48.2577L59.9639 39.1798C60.5503 39.0774 61.1489 39.0002 61.7667 39.0002Z" fill="white"/>
</svg>
