<svg width="91" height="125" viewBox="0 0 91 125" fill="none" xmlns="http://www.w3.org/2000/svg">
<path d="M45.1769 0.5C20.459 0.5 0.5 20.459 0.5 45.1769C0.5 53.2139 2.90302 61.4087 7.08995 68.801L36.5364 119.765C38.183 122.734 41.5785 124.5 45.1769 124.5C48.7104 124.5 51.985 122.772 53.8218 119.757L83.2626 68.8335C87.4898 61.4273 89.8539 53.3774 89.8539 45.2066C89.8539 20.4833 69.8889 0.5 45.1769 0.5Z" fill="#BD0699" stroke="#090909"/>
<path d="M58.9063 49.0886C55.5775 51.5947 51.4891 52.8456 47.347 52.6253H37.7433V69H28V23.0234H47.9756C51.9236 22.8095 55.8122 24.0674 58.9063 26.5601C61.8122 29.4414 63.2866 33.4923 62.9224 37.5945C63.3662 41.8434 61.8904 46.0679 58.9063 49.0886ZM51.5726 32.5724C50.0898 31.4732 48.2731 30.9349 46.439 31.0516H37.7433V44.5617H46.439C48.2951 44.677 50.1268 44.0839 51.5726 42.8994C52.8979 41.5035 53.5607 39.5941 53.3886 37.6652C53.5772 35.7766 52.9091 33.9032 51.5726 32.5724Z" fill="white"/>
</svg>
