<svg width="24" height="24" viewBox="0 0 24 24" fill="none" xmlns="http://www.w3.org/2000/svg">
<circle cx="12" cy="12" r="12" fill="#05CB63"/>
<path fill-rule="evenodd" clip-rule="evenodd" d="M17.4216 16.8748H16.0363C15.8078 16.8748 15.5845 16.9405 15.3944 17.0637L15.1163 17.244C14.3559 17.7368 13.4626 17.9998 12.5488 17.9998H8.23275C7.93059 18.0057 7.63717 17.901 7.41066 17.7064C7.18415 17.5118 7.0411 17.2416 7.00987 16.9493C6.99451 16.7196 7.05304 16.491 7.17732 16.2951C6.98365 16.2841 6.797 16.2207 6.63839 16.1121C6.47978 16.0035 6.35552 15.8539 6.27962 15.6803C6.14546 15.4309 6.11243 15.1416 6.18708 14.8696C6.25897 14.6292 6.41268 14.4196 6.62306 14.2752C6.4119 14.2041 6.22664 14.0747 6.08998 13.9028C5.95332 13.7309 5.8712 13.5239 5.85367 13.3073C5.83615 13.0907 5.88398 12.8738 5.99131 12.6832C6.09864 12.4926 6.26081 12.3366 6.45795 12.2343C6.24806 12.1252 6.07815 11.9554 5.97163 11.7484C5.86512 11.5415 5.82724 11.3074 5.86322 11.0787C5.91275 10.8079 6.05986 10.5632 6.27815 10.3884C6.49644 10.2136 6.77163 10.1202 7.05435 10.1249H10.8252C10.8496 10.1245 10.8735 10.1181 10.8947 10.1064C10.9159 10.0947 10.9338 10.078 10.9467 10.0578C10.9595 10.0376 10.9669 10.0146 10.9683 9.99093C10.9696 9.96723 10.9649 9.94359 10.9544 9.92216C10.6026 8.99813 10.4409 8.01588 10.4786 7.03123C10.4786 5.34379 11.4722 4.50006 12.2144 4.50006C12.2907 4.49894 12.3664 4.51272 12.4371 4.54059C12.5078 4.56846 12.5721 4.60984 12.626 4.6623C12.68 4.71475 12.7226 4.77721 12.7512 4.84596C12.7799 4.91471 12.7941 4.98836 12.793 5.06255V7.21122C12.793 7.45936 12.8774 7.70052 13.033 7.89714L15.3385 10.8108C15.4466 10.9474 15.5855 11.058 15.7446 11.1342C15.9036 11.2103 16.0785 11.2499 16.2558 11.2499H17.4216C17.575 11.2499 17.7221 11.3091 17.8306 11.4146C17.9391 11.5201 18 11.6632 18 11.8124V16.3122C18 16.3861 17.9851 16.4592 17.956 16.5275C17.9269 16.5957 17.8843 16.6578 17.8306 16.71C17.7769 16.7623 17.7131 16.8037 17.643 16.832C17.5728 16.8602 17.4976 16.8748 17.4216 16.8748V16.8748Z" fill="white"/>
</svg>
