<svg width="14" height="17" viewBox="0 0 14 17" fill="none" xmlns="http://www.w3.org/2000/svg">
<path fill-rule="evenodd" clip-rule="evenodd" d="M0.0411682 14.8679L0.0411682 8.60915C0.0425487 7.45721 0.976187 6.5238 2.12812 6.52271H4.21508C4.46708 6.51736 4.70225 6.64874 4.82982 6.86613C4.95738 7.08352 4.95738 7.3529 4.82982 7.57028C4.70225 7.78767 4.46708 7.91905 4.21508 7.9137H2.12812C1.74416 7.91407 1.43295 8.22518 1.43247 8.60915L1.43247 14.8679C1.43297 15.2519 1.74417 15.563 2.12812 15.5634H11.8673C12.2512 15.563 12.5625 15.2519 12.5629 14.8679V8.60915C12.5625 8.22516 12.2512 7.91401 11.8673 7.9137H9.7803C9.5283 7.91905 9.29313 7.78767 9.16556 7.57028C9.038 7.3529 9.038 7.08352 9.16556 6.86613C9.29313 6.64874 9.5283 6.51736 9.7803 6.52271H11.8673C13.0192 6.52382 13.9528 7.45722 13.9542 8.60915V14.8679C13.9528 16.0198 13.0191 16.9531 11.8673 16.9542H2.12812C0.976233 16.9532 0.0426062 16.0198 0.0411682 14.8679ZM7.69334 12.0875C7.69321 12.4716 7.38176 12.7828 6.99769 12.7827L6.99776 12.7826C6.81332 12.7827 6.6364 12.7095 6.50594 12.5791C6.37547 12.4487 6.30215 12.2718 6.30211 12.0874L6.30211 5.1392H4.5691C4.4366 5.13692 4.31625 5.06146 4.25649 4.94318C4.19672 4.8249 4.20738 4.68325 4.28416 4.57523L6.71505 1.10814C6.77975 1.01463 6.88622 0.958822 6.99993 0.958822C7.11365 0.958822 7.22012 1.01463 7.28482 1.10814L9.71571 4.57523C9.79251 4.68323 9.80318 4.82488 9.74343 4.94317C9.68368 5.06145 9.56334 5.13692 9.43084 5.1392H7.69334L7.69334 12.0875Z" fill="#637381"/>
</svg>
