<svg width="91" height="125" viewBox="0 0 91 125" fill="none" xmlns="http://www.w3.org/2000/svg">
<path d="M45.1769 0.5C20.459 0.5 0.5 20.459 0.5 45.1769C0.5 53.2139 2.90302 61.4087 7.08995 68.801L36.5364 119.765C38.183 122.734 41.5785 124.5 45.1769 124.5C48.7104 124.5 51.985 122.772 53.8218 119.757L83.2626 68.8335C87.4898 61.4273 89.8539 53.3774 89.8539 45.2066C89.8539 20.4833 69.8889 0.5 45.1769 0.5Z" fill="#BD0699" stroke="#090909"/>
<path d="M32.8878 49.2594C32.5505 49.5965 32.361 50.053 32.361 50.5288C32.361 51.0047 32.5505 51.4611 32.8878 51.7982L35.4372 54.337L27.7888 62.0238L26.4787 60.7192C25.0525 59.3886 24.1698 57.5804 24 55.6416V50.5288C24.1613 48.5775 25.0446 46.7554 26.4787 45.416L44.4312 27.5388C45.765 26.0847 47.5962 25.1793 49.5656 25H54.7C56.6694 25.1793 58.5006 26.0847 59.8343 27.5388L61.1091 28.8082L53.4252 36.495L50.8404 33.921C50.5019 33.5851 50.0435 33.3965 49.5656 33.3965C49.0877 33.3965 48.6294 33.5851 48.2909 33.921L32.8878 49.2594ZM31.5422 65.9025C31.8626 66.2383 32.2462 66.508 32.6712 66.6961C33.0962 66.8842 33.5543 66.9871 34.0192 66.9989C34.4842 67.0106 34.9469 66.9311 35.381 66.7648C35.8151 66.5984 36.212 66.3486 36.5491 66.0295L36.6766 65.9025L39.2261 63.3637C39.5633 63.0447 39.834 62.6627 40.0229 62.2395C40.2119 61.8163 40.3152 61.3601 40.327 60.8971C40.3388 60.4341 40.259 59.9733 40.0919 59.5411C39.9249 59.1088 39.674 58.7135 39.3535 58.3779L39.2261 58.2509L31.5422 65.9025ZM57.2141 40.2327C57.5344 40.5684 57.918 40.8381 58.343 41.0262C58.7681 41.2143 59.2261 41.3172 59.6911 41.329C60.156 41.3408 60.6188 41.2612 61.0529 41.0949C61.4869 40.9286 61.8839 40.6787 62.2209 40.3596L64.8979 37.6939C65.2351 37.3749 65.5059 36.9929 65.6948 36.5696C65.8837 36.1464 65.987 35.6902 65.9989 35.2272C66.0107 34.7642 65.9308 34.3035 65.7638 33.8712C65.5967 33.4389 65.3458 33.0437 65.0254 32.708L64.8979 32.5811L57.2141 40.2327Z" fill="white"/>
</svg>
