<svg width="91" height="125" viewBox="0 0 91 125" fill="none" xmlns="http://www.w3.org/2000/svg">
<path d="M45.1769 0.5C20.459 0.5 0.5 20.459 0.5 45.1769C0.5 53.2139 2.90302 61.4087 7.08995 68.801L36.5364 119.765C38.183 122.734 41.5785 124.5 45.1769 124.5C48.7104 124.5 51.985 122.772 53.8218 119.757L83.2626 68.8335C87.4898 61.4273 89.8539 53.3774 89.8539 45.2066C89.8539 20.4833 69.8889 0.5 45.1769 0.5Z" fill="#FF26D4" stroke="#090909"/>
<path d="M68.9818 39.6V59.4C68.9818 61.3883 67.3638 63 65.3678 63H25.614C23.618 63 22 61.3883 22 59.4V39.6C22 38.606 22.8092 37.8 23.807 37.8C24.0571 37.7453 24.3158 37.7453 24.5659 37.8L45.4909 52.2L66.452 37.8C66.6905 37.7503 66.9363 37.7503 67.1748 37.8C68.1726 37.8 68.9818 38.606 68.9818 39.6ZM22.9035 30.312L23.1926 30.6L45.4909 45L67.8615 30.6H68.0783C68.7274 30.2468 69.0873 29.529 68.9818 28.8C68.9818 27.806 68.1726 27 67.1748 27H23.807C22.8092 27 22 27.806 22 28.8C22.0094 29.4282 22.3534 30.0042 22.9035 30.312Z" fill="white"/>
</svg>
