<svg width="91" height="125" viewBox="0 0 91 125" fill="none" xmlns="http://www.w3.org/2000/svg">
<path d="M45.1769 0.5C20.459 0.5 0.5 20.459 0.5 45.1769C0.5 53.2139 2.90302 61.4087 7.08995 68.801L36.5364 119.765C38.183 122.734 41.5785 124.5 45.1769 124.5C48.7104 124.5 51.985 122.772 53.8218 119.757L83.2626 68.8335C87.4898 61.4273 89.8539 53.3774 89.8539 45.2066C89.8539 20.4833 69.8889 0.5 45.1769 0.5Z" fill="white" stroke="#090909"/>
<path d="M33.8878 49.2594C33.5505 49.5965 33.361 50.053 33.361 50.5288C33.361 51.0047 33.5505 51.4611 33.8878 51.7982L36.4372 54.337L28.7888 62.0238L27.4787 60.7192C26.0525 59.3886 25.1698 57.5804 25 55.6416V50.5288C25.1613 48.5775 26.0446 46.7554 27.4787 45.416L45.4312 27.5388C46.765 26.0847 48.5962 25.1793 50.5656 25H55.7C57.6694 25.1793 59.5006 26.0847 60.8343 27.5388L62.1091 28.8082L54.4252 36.495L51.8404 33.921C51.5019 33.5851 51.0435 33.3965 50.5656 33.3965C50.0877 33.3965 49.6294 33.5851 49.2909 33.921L33.8878 49.2594ZM32.5422 65.9025C32.8626 66.2383 33.2462 66.508 33.6712 66.6961C34.0962 66.8842 34.5543 66.9871 35.0192 66.9989C35.4842 67.0106 35.9469 66.9311 36.381 66.7648C36.8151 66.5984 37.212 66.3486 37.5491 66.0295L37.6766 65.9025L40.2261 63.3637C40.5633 63.0447 40.834 62.6627 41.0229 62.2395C41.2119 61.8163 41.3152 61.3601 41.327 60.8971C41.3388 60.4341 41.259 59.9733 41.0919 59.5411C40.9249 59.1088 40.674 58.7135 40.3535 58.3779L40.2261 58.2509L32.5422 65.9025ZM58.2141 40.2327C58.5344 40.5684 58.918 40.8381 59.343 41.0262C59.7681 41.2143 60.2261 41.3172 60.6911 41.329C61.156 41.3408 61.6188 41.2612 62.0529 41.0949C62.4869 40.9286 62.8839 40.6787 63.2209 40.3596L65.8979 37.6939C66.2351 37.3749 66.5059 36.9929 66.6948 36.5696C66.8837 36.1464 66.987 35.6902 66.9989 35.2272C67.0107 34.7642 66.9308 34.3035 66.7638 33.8712C66.5967 33.4389 66.3458 33.0437 66.0254 32.708L65.8979 32.5811L58.2141 40.2327Z" fill="black"/>
</svg>
