<svg width="91" height="125" viewBox="0 0 91 125" fill="none" xmlns="http://www.w3.org/2000/svg">
<path d="M45.1769 0.5C20.459 0.5 0.5 20.459 0.5 45.1769C0.5 53.2139 2.90302 61.4087 7.08995 68.801L36.5364 119.765C38.183 122.734 41.5785 124.5 45.1769 124.5C48.7104 124.5 51.985 122.772 53.8218 119.757L83.2626 68.8335C87.4898 61.4273 89.8539 53.3774 89.8539 45.2066C89.8539 20.4833 69.8889 0.5 45.1769 0.5Z" fill="white" stroke="#090909"/>
<path d="M66.6 26V37.1H70.2V47.275H72V52.825H70.2V63H66.6V52.825H63V57.45H59.4V52.825H30.6V57.45H27V52.825H23.4V63H19.8V52.825H18V47.275H19.8V37.1H23.4V26H66.6ZM66.6 40.8V44.5H63V47.275H66.6V40.8ZM59.4 44.5H30.6V47.275H59.4V44.5ZM23.4 40.8V47.275H27V44.5H23.4V40.8Z" fill="black"/>
</svg>
