<svg width="24" height="24" viewBox="0 0 24 24" fill="none" xmlns="http://www.w3.org/2000/svg">
<circle cx="12" cy="12" r="12" fill="#E05643"/>
<path fill-rule="evenodd" clip-rule="evenodd" d="M6.42851 7.1252H7.81381C8.04225 7.12522 8.26557 7.05948 8.45565 6.93626L8.73381 6.75599C9.49419 6.26319 10.3875 6.00023 11.3013 6.00024H15.6173C15.9195 5.99431 16.2129 6.09901 16.4394 6.29358C16.6659 6.48816 16.809 6.7584 16.8402 7.05073C16.8556 7.28039 16.7971 7.50901 16.6728 7.70487C16.8664 7.71587 17.0531 7.77926 17.2117 7.88789C17.3703 7.99652 17.4946 8.14607 17.5705 8.31969C17.7046 8.56912 17.7377 8.85842 17.663 9.13039C17.5911 9.37084 17.4374 9.58043 17.227 9.72482C17.4382 9.79588 17.6235 9.9253 17.7601 10.0972C17.8968 10.2691 17.9789 10.4761 17.9964 10.6927C18.014 10.9093 17.9661 11.1262 17.8588 11.3168C17.7515 11.5074 17.5893 11.6634 17.3921 11.7657C17.602 11.8748 17.7719 12.0446 17.8785 12.2516C17.985 12.4585 18.0229 12.6926 17.9869 12.9213C17.9373 13.1921 17.7902 13.4368 17.572 13.6116C17.3537 13.7864 17.0785 13.8798 16.7957 13.8751L13.0249 13.8751C13.0005 13.8755 12.9766 13.8819 12.9554 13.8936C12.9341 13.9053 12.9163 13.922 12.9034 13.9422C12.8906 13.9624 12.8831 13.9854 12.8818 14.0091C12.8805 14.0328 12.8852 14.0564 12.8957 14.0778C13.2475 15.0019 13.4092 15.9841 13.3715 16.9688C13.3715 18.6562 12.3779 19.4999 11.6357 19.4999C11.5594 19.5011 11.4837 19.4873 11.413 19.4594C11.3423 19.4315 11.278 19.3902 11.2241 19.3377C11.1701 19.2852 11.1275 19.2228 11.0988 19.154C11.0702 19.0853 11.056 19.0116 11.0571 18.9375L11.0571 16.7888C11.0571 16.5406 10.9727 16.2995 10.8171 16.1029L8.51161 13.1892C8.4035 13.0526 8.26457 12.942 8.10553 12.8658C7.94649 12.7897 7.7716 12.7501 7.59433 12.7501H6.42851C6.27511 12.7501 6.12799 12.6909 6.01951 12.5854C5.91104 12.4799 5.8501 12.3368 5.8501 12.1876L5.8501 7.6878C5.85008 7.61392 5.86503 7.54077 5.89409 7.47251C5.92315 7.40425 5.96576 7.34223 6.01947 7.28999C6.07318 7.23775 6.13695 7.1963 6.20714 7.16803C6.27732 7.13975 6.35254 7.1252 6.42851 7.1252V7.1252Z" fill="white"/>
</svg>
