<svg width="61" height="44" viewBox="0 0 61 44" fill="none" xmlns="http://www.w3.org/2000/svg">
<path d="M30.5 0.000292325C27.7505 -0.0397077 27.7505 4.03869 30.5 4.00029H36.6V9.06259L25.2024 18.3986L21.2386 8.00019H22.3667C25.1161 8.04019 25.1161 3.96189 22.3667 4.00029H14.2333C11.4839 3.96029 11.4839 8.03859 14.2333 8.00019H16.886L20.5082 17.5002C18.6058 16.5698 16.494 16.0002 14.2333 16.0002C6.3965 16.0002 0 22.2917 0 30.0001C0 37.7084 6.3965 44 14.2333 44C22.0702 44 28.4667 37.7084 28.4667 30.0001C28.4667 27.3205 27.6521 24.8357 26.3142 22.7033L37.7834 13.305L39.6659 17.9458C35.4264 20.375 32.5333 24.8449 32.5333 30.0001C32.5333 37.7084 38.9298 44 46.7667 44C54.6035 44 61 37.7084 61 30.0001C61 22.2917 54.6035 16.0002 46.7667 16.0002C45.6154 16.0002 44.5121 16.1738 43.4385 16.4298L40.6667 9.60939V2.00029C40.6667 0.895892 39.7561 0.000292325 38.6333 0.000292325H30.5ZM14.2333 20.0002C16.642 20.0002 18.8189 20.8478 20.5558 22.2109L12.9308 28.4609C10.8531 30.1701 13.4505 33.2389 15.5359 31.5389L23.1609 25.2889C23.9262 26.6961 24.4 28.2845 24.4 30.0001C24.4 35.5465 19.8722 40 14.2333 40C8.5945 40 4.0667 35.5465 4.0667 30.0001C4.0667 24.4537 8.5941 20.0002 14.2333 20.0002ZM46.7667 20.0002C52.4055 20.0002 56.9333 24.4537 56.9333 30.0001C56.9333 35.5465 52.4055 40 46.7667 40C41.1278 40 36.6 35.5465 36.6 30.0001C36.6 26.4921 38.417 23.4317 41.175 21.6485L44.8765 30.7421C45.8769 33.2345 49.6768 31.7425 48.6573 29.2577L44.9639 20.1798C45.5503 20.0774 46.1489 20.0002 46.7667 20.0002Z" fill="#212B36"/>
</svg>
