<svg width="51" height="51" viewBox="0 0 51 51" fill="none" xmlns="http://www.w3.org/2000/svg">
<path d="M31.3846 4.9038C31.3846 6.2044 30.868 7.4517 29.9483 8.3714C29.0287 9.291 27.7813 9.8077 26.4808 9.8077C25.1802 9.8077 23.9329 9.291 23.0132 8.3714C22.0936 7.4517 21.5769 6.2044 21.5769 4.9038C21.5769 3.6033 22.0936 2.356 23.0132 1.4363C23.9329 0.5167 25.1802 0 26.4808 0C27.7813 0 29.0287 0.5167 29.9483 1.4363C30.868 2.356 31.3846 3.6033 31.3846 4.9038ZM21.5769 10.7885H24.5192L41.1923 22.4792V25.1744H39.2308L29.4231 18.2031V25.1744L33.3462 32.3654L37.2692 41.3571L35.3077 43.1538H33.3462L29.4231 34.1622L21.5769 23.3737V15.0018L16.6731 18.8818L12.75 25.1744H9.8077V23.3737L12.75 17.9795L21.5769 10.7885ZM23.2325 29.5015L18.6974 43.1538H16.6731L14.7115 41.3571L20.2274 26.1865L23.2325 29.4976V29.5015ZM3.9231 45.1154H15.6923L11.7692 51H0L3.9231 45.1154ZM21.5769 45.1154H29.4231L33.3462 51H17.6538L21.5769 45.1154ZM47.0769 45.1154L51 51H39.2308L35.3077 45.1154H47.0769Z" fill="#212B36"/>
</svg>
