<svg width="24" height="24" viewBox="0 0 24 24" fill="none" xmlns="http://www.w3.org/2000/svg">
<path fill-rule="evenodd" clip-rule="evenodd" d="M13.306 19.5483C13.2374 19.6981 13.1228 19.8221 12.9788 19.9022C12.8349 19.9823 12.6691 20.0145 12.5056 19.994C12.3422 19.9734 12.1895 19.9013 12.0698 19.7881C11.9502 19.6748 11.8697 19.5263 11.8403 19.3642L10.8278 13.7954C10.7996 13.6404 10.7248 13.4978 10.6134 13.3864C10.502 13.2751 10.3593 13.2003 10.2043 13.1722L4.63578 12.1597C4.47368 12.1302 4.32521 12.0498 4.21196 11.9301C4.0987 11.8105 4.02657 11.6578 4.00604 11.4944C3.98551 11.3309 4.01765 11.1651 4.0978 11.0212C4.17795 10.8772 4.30193 10.7626 4.4517 10.6939L18.903 4.07041C19.0467 4.00456 19.2071 3.98426 19.3626 4.01221C19.5182 4.04017 19.6614 4.11505 19.7732 4.22681C19.8849 4.33856 19.9598 4.48183 19.9878 4.63738C20.0157 4.79294 19.9954 4.95332 19.9296 5.09699L13.306 19.5483Z" fill="#637381"/>
</svg>
