<svg width="91" height="125" viewBox="0 0 91 125" fill="none" xmlns="http://www.w3.org/2000/svg">
<path d="M45.1769 0.5C20.459 0.5 0.5 20.459 0.5 45.1769C0.5 53.2139 2.90302 61.4087 7.08995 68.801L36.5364 119.765C38.183 122.734 41.5785 124.5 45.1769 124.5C48.7104 124.5 51.985 122.772 53.8218 119.757L83.2626 68.8335C87.4898 61.4273 89.8539 53.3774 89.8539 45.2066C89.8539 20.4833 69.8889 0.5 45.1769 0.5Z" fill="white" stroke="#090909"/>
<path d="M50.3846 21.9038C50.3846 23.2044 49.868 24.4517 48.9483 25.3714C48.0287 26.291 46.7813 26.8077 45.4808 26.8077C44.1802 26.8077 42.9329 26.291 42.0132 25.3714C41.0936 24.4517 40.5769 23.2044 40.5769 21.9038C40.5769 20.6033 41.0936 19.356 42.0132 18.4363C42.9329 17.5167 44.1802 17 45.4808 17C46.7813 17 48.0287 17.5167 48.9483 18.4363C49.868 19.356 50.3846 20.6033 50.3846 21.9038V21.9038ZM40.5769 27.7885H43.5192L60.1923 39.4792V42.1744H58.2308L48.4231 35.2031V42.1744L52.3462 49.3654L56.2692 58.3571L54.3077 60.1538H52.3462L48.4231 51.1622L40.5769 40.3737V32.0018L35.6731 35.8818L31.75 42.1744H28.8077V40.3737L31.75 34.9795L40.5769 27.7885ZM42.2325 46.5015L37.6974 60.1538H35.6731L33.7115 58.3571L39.2274 43.1865L42.2325 46.4976V46.5015ZM22.9231 62.1154H34.6923L30.7692 68H19L22.9231 62.1154ZM40.5769 62.1154H48.4231L52.3462 68H36.6538L40.5769 62.1154ZM66.0769 62.1154L70 68H58.2308L54.3077 62.1154H66.0769Z" fill="black"/>
</svg>
