<svg width="91" height="125" viewBox="0 0 91 125" fill="none" xmlns="http://www.w3.org/2000/svg">
<path d="M45.1769 0.5C20.459 0.5 0.5 20.459 0.5 45.1769C0.5 53.2139 2.90302 61.4087 7.08995 68.801L36.5364 119.765C38.183 122.734 41.5785 124.5 45.1769 124.5C48.7104 124.5 51.985 122.772 53.8218 119.757L83.2626 68.8335C87.4898 61.4273 89.8539 53.3774 89.8539 45.2066C89.8539 20.4833 69.8889 0.5 45.1769 0.5Z" fill="#FF26D4" stroke="#090909"/>
<path d="M56.6333 26.5385H67.2333L61.9333 40.6923H69L54.8667 65.4615L58.4 47.7692H51.3333L56.6333 26.5385ZM35.4333 31.8462V26.5385C35.4333 25.6 35.8056 24.7 36.4682 24.0364C37.1309 23.3728 38.0296 23 38.9667 23C39.9038 23 40.8025 23.3728 41.4651 24.0364C42.1277 24.7 42.5 25.6 42.5 26.5385V31.8462H51.3333L49.92 37.1538H42.5V69H35.4333V37.1538H16V31.8462H35.4333ZM19.5333 26.5385H26.6V30.0769H19.5333V26.5385Z" fill="white"/>
</svg>
