<svg width="30" height="24" viewBox="0 0 30 24" fill="none" xmlns="http://www.w3.org/2000/svg">
<path d="M8.24155 18.7587C8.08691 18.6044 8 18.3949 8 18.1765C8 17.958 8.08691 17.7485 8.24155 17.5942L13.8423 12.0002L8.24155 6.40617C7.91998 6.08422 7.92029 5.56254 8.24225 5.24097C8.5642 4.9194 9.08588 4.91972 9.40745 5.24167L15.5911 11.4179C15.7458 11.5722 15.8327 11.7817 15.8327 12.0002C15.8327 12.2187 15.7458 12.4281 15.5911 12.5825L9.40745 18.7587C9.0854 19.0804 8.5636 19.0804 8.24155 18.7587Z" fill="#637381"/>
<path d="M14.2415 18.7587C14.0869 18.6044 14 18.3949 14 18.1765C14 17.958 14.0869 17.7485 14.2415 17.5942L19.8423 12.0002L14.2415 6.40617C13.92 6.08422 13.9203 5.56254 14.2422 5.24097C14.5642 4.9194 15.0859 4.91972 15.4074 5.24167L21.5911 11.4179C21.7458 11.5722 21.8327 11.7817 21.8327 12.0002C21.8327 12.2187 21.7458 12.4281 21.5911 12.5825L15.4074 18.7587C15.0854 19.0804 14.5636 19.0804 14.2415 18.7587Z" fill="#637381"/>
</svg>
