<svg width="32" height="32" viewBox="0 0 32 32" fill="none" xmlns="http://www.w3.org/2000/svg">
<path fill-rule="evenodd" clip-rule="evenodd" d="M24.3507 10.8763H7.64896C7.10636 10.8763 6.6665 10.4364 6.6665 9.89382V8.91131C6.6665 8.36868 7.10636 7.9288 7.64896 7.9288H10.5963C10.5963 6.48874 10.8986 5.64811 11.5712 4.97533C12.2438 4.30256 13.0822 4 14.5217 4H17.4784C18.9177 4 19.7563 4.30246 20.4288 4.97533C21.1013 5.64821 21.4033 6.48874 21.4033 7.9288H24.3507C24.8933 7.9288 25.3332 8.36868 25.3332 8.91131V9.89382C25.3332 10.4364 24.8933 10.8763 24.3507 10.8763ZM18.951 6.45209C18.5521 6.08512 18.0147 5.90745 17.4757 5.96438H14.5241C13.9851 5.90748 13.4478 6.08515 13.0489 6.45209C12.6821 6.85159 12.5046 7.38942 12.5615 7.9288H19.4387C19.4956 7.38942 19.3181 6.85159 18.9512 6.45209H18.951ZM23.7224 12.0133C23.6292 11.9144 23.4993 11.8585 23.3634 11.8588H8.63515C8.4993 11.8586 8.36938 11.9145 8.27618 12.0133C8.18297 12.1122 8.13477 12.2451 8.14299 12.3807L9.00966 26.1971C9.05992 26.9752 9.70634 27.5803 10.486 27.5789H21.5127C22.2925 27.5803 22.9389 26.9752 22.9891 26.1971L23.8555 12.3807C23.8638 12.2451 23.8156 12.1121 23.7224 12.0133Z" fill="#E05643"/>
</svg>
