{
  "asset": {
    "version": "2.0",
    "generator": "GLTFExporter"
  },
  "scenes": [
    {
      "name": "Scene",
      "nodes": [
        8,
        29,
        50
      ]
    }
  ],
  "scene": 0,
  "nodes": [
    {
      "mesh": 0
    },
    {
      "mesh": 1
    },
    {
      "mesh": 2
    },
    {
      "mesh": 3
    },
    {
      "mesh": 4
    },
    {
      "mesh": 5
    },
    {
      "mesh": 6
    },
    {
      "mesh": 7
    },
    {
      "matrix": [
        0.1,
        0,
        0,
        0,
        0,
        0.00034906514152235337,
        0.09999939076577903,
        0,
        0,
        0.09999939076577903,
        -0.00034906514152235337,
        0,
        -14.87274676174399,
        0.8018286086637119,
        -6.315002471095099,
        1
      ],
      "children": [
        0,
        1,
        2,
        3,
        4,
        5,
        6,
        7
      ]
    },
    {
      "matrix": [
        -0.2908647428269262,
        -0.055189063886274425,
        -0.9551712048106182,
        0,
        0.5663932381446841,
        0.7946722584579202,
        -0.21839122503485697,
        0,
        0.7711008773539234,
        -0.6045247675783045,
        -0.19988344806390224,
        0,
        4.076245307922363,
        5.903861999511719,
        -1.0054539442062378,
        1
      ],
      "name": "Light",
      "extras": {
        "name": "Light"
      }
    },
    {
      "matrix": [
        0.6859206666375535,
        -4.011331711240018e-9,
        -0.7276763385868836,
        0,
        0.6515582236083066,
        0.4452714146389205,
        0.6141703952861253,
        0,
        0.32401347963873484,
        -0.8953956629320512,
        0.30542086411130853,
        0,
        7.358891487121582,
        4.958309173583984,
        6.925790786743164,
        1
      ],
      "name": "Camera",
      "extras": {
        "name": "Camera"
      }
    },
    {
      "name": "Curve",
      "extras": {
        "name": "Curve"
      }
    },
    {
      "name": "Curve001",
      "extras": {
        "name": "Curve.001"
      }
    },
    {
      "name": "Curve002",
      "extras": {
        "name": "Curve.002"
      }
    },
    {
      "name": "Curve003",
      "extras": {
        "name": "Curve.003"
      }
    },
    {
      "name": "Curve004",
      "extras": {
        "name": "Curve.004"
      }
    },
    {
      "name": "Curve005",
      "extras": {
        "name": "Curve.005"
      }
    },
    {
      "name": "Curve006",
      "extras": {
        "name": "Curve.006"
      }
    },
    {
      "name": "Curve007",
      "extras": {
        "name": "Curve.007"
      }
    },
    {
      "matrix": [
        1,
        0,
        0,
        0,
        0,
        1,
        0,
        0,
        0,
        0,
        1,
        0,
        2.691722869873047,
        0.10967826843261719,
        -6.229389190673828,
        1
      ],
      "name": "Lavant_Stsvg",
      "extras": {
        "name": "Lavant St.svg"
      },
      "children": [
        11,
        12,
        13,
        14,
        15,
        16,
        17,
        18
      ]
    },
    {
      "name": "Curve",
      "extras": {
        "name": "Curve"
      }
    },
    {
      "name": "Curve001",
      "extras": {
        "name": "Curve.001"
      }
    },
    {
      "name": "Curve002",
      "extras": {
        "name": "Curve.002"
      }
    },
    {
      "name": "Curve003",
      "extras": {
        "name": "Curve.003"
      }
    },
    {
      "name": "Curve004",
      "extras": {
        "name": "Curve.004"
      }
    },
    {
      "name": "Curve005",
      "extras": {
        "name": "Curve.005"
      }
    },
    {
      "name": "Curve006",
      "extras": {
        "name": "Curve.006"
      }
    },
    {
      "name": "Curve007",
      "extras": {
        "name": "Curve.007"
      }
    },
    {
      "name": "Curve008",
      "extras": {
        "name": "Curve.008"
      }
    },
    {
      "name": "lavant.glb",
      "children": [
        9,
        10,
        19,
        20,
        21,
        22,
        23,
        24,
        25,
        26,
        27,
        28
      ]
    },
    {
      "matrix": [
        -0.2908647428269262,
        -0.055189063886274425,
        -0.9551712048106182,
        0,
        0.5663932381446841,
        0.7946722584579202,
        -0.21839122503485697,
        0,
        0.7711008773539234,
        -0.6045247675783045,
        -0.19988344806390224,
        0,
        4.076245307922363,
        5.903861999511719,
        -1.0054539442062378,
        1
      ],
      "name": "Light",
      "extras": {
        "name": "Light"
      }
    },
    {
      "matrix": [
        0.6859206666375535,
        -4.011331711240018e-9,
        -0.7276763385868836,
        0,
        0.6515582236083066,
        0.4452714146389205,
        0.6141703952861253,
        0,
        0.32401347963873484,
        -0.8953956629320512,
        0.30542086411130853,
        0,
        7.358891487121582,
        4.958309173583984,
        6.925790786743164,
        1
      ],
      "name": "Camera",
      "extras": {
        "name": "Camera"
      }
    },
    {
      "name": "Curve",
      "extras": {
        "name": "Curve"
      }
    },
    {
      "name": "Curve001",
      "extras": {
        "name": "Curve.001"
      }
    },
    {
      "name": "Curve002",
      "extras": {
        "name": "Curve.002"
      }
    },
    {
      "name": "Curve003",
      "extras": {
        "name": "Curve.003"
      }
    },
    {
      "name": "Curve004",
      "extras": {
        "name": "Curve.004"
      }
    },
    {
      "name": "Curve005",
      "extras": {
        "name": "Curve.005"
      }
    },
    {
      "name": "Curve006",
      "extras": {
        "name": "Curve.006"
      }
    },
    {
      "name": "Curve007",
      "extras": {
        "name": "Curve.007"
      }
    },
    {
      "matrix": [
        1,
        0,
        0,
        0,
        0,
        1,
        0,
        0,
        0,
        0,
        1,
        0,
        2.691722869873047,
        0.10967826843261719,
        -6.229389190673828,
        1
      ],
      "name": "Lavant_Stsvg",
      "extras": {
        "name": "Lavant St.svg"
      },
      "children": [
        32,
        33,
        34,
        35,
        36,
        37,
        38,
        39
      ]
    },
    {
      "name": "Curve",
      "extras": {
        "name": "Curve"
      }
    },
    {
      "name": "Curve001",
      "extras": {
        "name": "Curve.001"
      }
    },
    {
      "name": "Curve002",
      "extras": {
        "name": "Curve.002"
      }
    },
    {
      "name": "Curve003",
      "extras": {
        "name": "Curve.003"
      }
    },
    {
      "name": "Curve004",
      "extras": {
        "name": "Curve.004"
      }
    },
    {
      "name": "Curve005",
      "extras": {
        "name": "Curve.005"
      }
    },
    {
      "name": "Curve006",
      "extras": {
        "name": "Curve.006"
      }
    },
    {
      "name": "Curve007",
      "extras": {
        "name": "Curve.007"
      }
    },
    {
      "name": "Curve008",
      "extras": {
        "name": "Curve.008"
      }
    },
    {
      "name": "lavant.glb",
      "children": [
        30,
        31,
        40,
        41,
        42,
        43,
        44,
        45,
        46,
        47,
        48,
        49
      ]
    }
  ],
  "bufferViews": [
    {
      "buffer": 0,
      "byteOffset": 0,
      "byteLength": 720,
      "target": 34962,
      "byteStride": 12
    },
    {
      "buffer": 0,
      "byteOffset": 720,
      "byteLength": 480,
      "target": 34962,
      "byteStride": 8
    },
    {
      "buffer": 0,
      "byteOffset": 1200,
      "byteLength": 720,
      "target": 34962,
      "byteStride": 12
    },
    {
      "buffer": 0,
      "byteOffset": 1920,
      "byteLength": 37440,
      "target": 34962,
      "byteStride": 12
    },
    {
      "buffer": 0,
      "byteOffset": 39360,
      "byteLength": 24960,
      "target": 34962,
      "byteStride": 8
    },
    {
      "buffer": 0,
      "byteOffset": 64320,
      "byteLength": 37440,
      "target": 34962,
      "byteStride": 12
    },
    {
      "buffer": 0,
      "byteOffset": 101760,
      "byteLength": 864,
      "target": 34962,
      "byteStride": 12
    },
    {
      "buffer": 0,
      "byteOffset": 102624,
      "byteLength": 576,
      "target": 34962,
      "byteStride": 8
    },
    {
      "buffer": 0,
      "byteOffset": 103200,
      "byteLength": 864,
      "target": 34962,
      "byteStride": 12
    },
    {
      "buffer": 0,
      "byteOffset": 104064,
      "byteLength": 37440,
      "target": 34962,
      "byteStride": 12
    },
    {
      "buffer": 0,
      "byteOffset": 141504,
      "byteLength": 24960,
      "target": 34962,
      "byteStride": 8
    },
    {
      "buffer": 0,
      "byteOffset": 166464,
      "byteLength": 37440,
      "target": 34962,
      "byteStride": 12
    },
    {
      "buffer": 0,
      "byteOffset": 203904,
      "byteLength": 11376,
      "target": 34962,
      "byteStride": 12
    },
    {
      "buffer": 0,
      "byteOffset": 215280,
      "byteLength": 7584,
      "target": 34962,
      "byteStride": 8
    },
    {
      "buffer": 0,
      "byteOffset": 222864,
      "byteLength": 11376,
      "target": 34962,
      "byteStride": 12
    },
    {
      "buffer": 0,
      "byteOffset": 234240,
      "byteLength": 11952,
      "target": 34962,
      "byteStride": 12
    },
    {
      "buffer": 0,
      "byteOffset": 246192,
      "byteLength": 7968,
      "target": 34962,
      "byteStride": 8
    },
    {
      "buffer": 0,
      "byteOffset": 254160,
      "byteLength": 11952,
      "target": 34962,
      "byteStride": 12
    },
    {
      "buffer": 0,
      "byteOffset": 266112,
      "byteLength": 46800,
      "target": 34962,
      "byteStride": 12
    },
    {
      "buffer": 0,
      "byteOffset": 312912,
      "byteLength": 31200,
      "target": 34962,
      "byteStride": 8
    },
    {
      "buffer": 0,
      "byteOffset": 344112,
      "byteLength": 46800,
      "target": 34962,
      "byteStride": 12
    },
    {
      "buffer": 0,
      "byteOffset": 390912,
      "byteLength": 11952,
      "target": 34962,
      "byteStride": 12
    },
    {
      "buffer": 0,
      "byteOffset": 402864,
      "byteLength": 7968,
      "target": 34962,
      "byteStride": 8
    },
    {
      "buffer": 0,
      "byteOffset": 410832,
      "byteLength": 11952,
      "target": 34962,
      "byteStride": 12
    }
  ],
  "buffers": [
    {
      "byteLength": 422784,
      "uri": "data:application/octet-stream;base64,"
    }
  ],
  "accessors": [
    {
      "bufferView": 0,
      "componentType": 5126,
      "count": 60,
      "max": [
        32.3302001953125,
        52.31930160522461,
        4
      ],
      "min": [
        0.9437260031700134,
        0.7363880276679993,
        0
      ],
      "type": "VEC3"
    },
    {
      "bufferView": 1,
      "componentType": 5126,
      "count": 60,
      "max": [
        52.31930160522461,
        52.31930160522461
      ],
      "min": [
        0.7363880276679993,
        -3
      ],
      "type": "VEC2"
    },
    {
      "bufferView": 2,
      "componentType": 5126,
      "count": 60,
      "max": [
        1,
        1,
        1
      ],
      "min": [
        -1,
        -1,
        -1
      ],
      "type": "VEC3"
    },
    {
      "bufferView": 3,
      "componentType": 5126,
      "count": 3120,
      "max": [
        69.7238998413086,
        53.027801513671875,
        4
      ],
      "min": [
        37.98189926147461,
        13.277799606323242,
        0
      ],
      "type": "VEC3"
    },
    {
      "bufferView": 4,
      "componentType": 5126,
      "count": 3120,
      "max": [
        69.7238998413086,
        53.027801513671875
      ],
      "min": [
        13.277799606323242,
        -3
      ],
      "type": "VEC2"
    },
    {
      "bufferView": 5,
      "componentType": 5126,
      "count": 3120,
      "max": [
        1,
        1,
        1
      ],
      "min": [
        -1,
        -1,
        -1
      ],
      "type": "VEC3"
    },
    {
      "bufferView": 6,
      "componentType": 5126,
      "count": 72,
      "max": [
        107.0459976196289,
        52.31930160522461,
        4
      ],
      "min": [
        74.3093032836914,
        13.98639965057373,
        0
      ],
      "type": "VEC3"
    },
    {
      "bufferView": 7,
      "componentType": 5126,
      "count": 72,
      "max": [
        107.0459976196289,
        52.31930160522461
      ],
      "min": [
        13.98639965057373,
        -3
      ],
      "type": "VEC2"
    },
    {
      "bufferView": 8,
      "componentType": 5126,
      "count": 72,
      "max": [
        0.9490549564361572,
        1,
        1
      ],
      "min": [
        -0.9514365792274475,
        -1,
        -1
      ],
      "type": "VEC3"
    },
    {
      "bufferView": 9,
      "componentType": 5126,
      "count": 3120,
      "max": [
        143.44500732421875,
        53.027801513671875,
        4
      ],
      "min": [
        111.7030029296875,
        13.277799606323242,
        0
      ],
      "type": "VEC3"
    },
    {
      "bufferView": 10,
      "componentType": 5126,
      "count": 3120,
      "max": [
        143.44500732421875,
        53.027801513671875
      ],
      "min": [
        13.277799606323242,
        -3
      ],
      "type": "VEC2"
    },
    {
      "bufferView": 11,
      "componentType": 5126,
      "count": 3120,
      "max": [
        1,
        1,
        1
      ],
      "min": [
        -1,
        -1,
        -1
      ],
      "type": "VEC3"
    },
    {
      "bufferView": 12,
      "componentType": 5126,
      "count": 948,
      "max": [
        182.6510009765625,
        52.31930160522461,
        4
      ],
      "min": [
        152.40199279785156,
        13.277799606323242,
        0
      ],
      "type": "VEC3"
    },
    {
      "bufferView": 13,
      "componentType": 5126,
      "count": 948,
      "max": [
        182.6510009765625,
        52.31930160522461
      ],
      "min": [
        13.277799606323242,
        -3
      ],
      "type": "VEC2"
    },
    {
      "bufferView": 14,
      "componentType": 5126,
      "count": 948,
      "max": [
        1,
        1,
        1
      ],
      "min": [
        -1,
        -1,
        -1
      ],
      "type": "VEC3"
    },
    {
      "bufferView": 15,
      "componentType": 5126,
      "count": 996,
      "max": [
        208.84800720214844,
        53.027801513671875,
        4
      ],
      "min": [
        187.91200256347656,
        4.7042999267578125,
        0
      ],
      "type": "VEC3"
    },
    {
      "bufferView": 16,
      "componentType": 5126,
      "count": 996,
      "max": [
        208.84800720214844,
        53.027801513671875
      ],
      "min": [
        4.7042999267578125,
        -3
      ],
      "type": "VEC2"
    },
    {
      "bufferView": 17,
      "componentType": 5126,
      "count": 996,
      "max": [
        1,
        1,
        1
      ],
      "min": [
        -1,
        -1,
        -1
      ],
      "type": "VEC3"
    },
    {
      "bufferView": 18,
      "componentType": 5126,
      "count": 3900,
      "max": [
        269.9150085449219,
        53.027801513671875,
        4
      ],
      "min": [
        232.30799865722656,
        0.027831999585032463,
        0
      ],
      "type": "VEC3"
    },
    {
      "bufferView": 19,
      "componentType": 5126,
      "count": 3900,
      "max": [
        269.9150085449219,
        53.027801513671875
      ],
      "min": [
        0.027831999585032463,
        -3
      ],
      "type": "VEC2"
    },
    {
      "bufferView": 20,
      "componentType": 5126,
      "count": 3900,
      "max": [
        0.9998192191123962,
        1,
        1
      ],
      "min": [
        -0.999729573726654,
        -1,
        -1
      ],
      "type": "VEC3"
    },
    {
      "bufferView": 21,
      "componentType": 5126,
      "count": 996,
      "max": [
        293.9440002441406,
        53.027801513671875,
        4
      ],
      "min": [
        273.00799560546875,
        4.7042999267578125,
        0
      ],
      "type": "VEC3"
    },
    {
      "bufferView": 22,
      "componentType": 5126,
      "count": 996,
      "max": [
        293.9440002441406,
        53.027801513671875
      ],
      "min": [
        4.7042999267578125,
        -3
      ],
      "type": "VEC2"
    },
    {
      "bufferView": 23,
      "componentType": 5126,
      "count": 996,
      "max": [
        1,
        1,
        1
      ],
      "min": [
        -1,
        -1,
        -1
      ],
      "type": "VEC3"
    }
  ],
  "materials": [
    {
      "pbrMetallicRoughness": {
        "baseColorFactor": [
          0,
          0,
          0,
          1
        ],
        "metallicFactor": 0,
        "roughnessFactor": 0.9
      },
      "extensions": {
        "KHR_materials_unlit": {}
      }
    },
    {
      "pbrMetallicRoughness": {
        "baseColorFactor": [
          0,
          0,
          0,
          1
        ],
        "metallicFactor": 0,
        "roughnessFactor": 0.9
      },
      "extensions": {
        "KHR_materials_unlit": {}
      }
    },
    {
      "pbrMetallicRoughness": {
        "baseColorFactor": [
          0,
          0,
          0,
          1
        ],
        "metallicFactor": 0,
        "roughnessFactor": 0.9
      },
      "extensions": {
        "KHR_materials_unlit": {}
      }
    },
    {
      "pbrMetallicRoughness": {
        "baseColorFactor": [
          0,
          0,
          0,
          1
        ],
        "metallicFactor": 0,
        "roughnessFactor": 0.9
      },
      "extensions": {
        "KHR_materials_unlit": {}
      }
    },
    {
      "pbrMetallicRoughness": {
        "baseColorFactor": [
          0,
          0,
          0,
          1
        ],
        "metallicFactor": 0,
        "roughnessFactor": 0.9
      },
      "extensions": {
        "KHR_materials_unlit": {}
      }
    },
    {
      "pbrMetallicRoughness": {
        "baseColorFactor": [
          0,
          0,
          0,
          1
        ],
        "metallicFactor": 0,
        "roughnessFactor": 0.9
      },
      "extensions": {
        "KHR_materials_unlit": {}
      }
    },
    {
      "pbrMetallicRoughness": {
        "baseColorFactor": [
          0,
          0,
          0,
          1
        ],
        "metallicFactor": 0,
        "roughnessFactor": 0.9
      },
      "extensions": {
        "KHR_materials_unlit": {}
      }
    },
    {
      "pbrMetallicRoughness": {
        "baseColorFactor": [
          0,
          0,
          0,
          1
        ],
        "metallicFactor": 0,
        "roughnessFactor": 0.9
      },
      "extensions": {
        "KHR_materials_unlit": {}
      }
    }
  ],
  "meshes": [
    {
      "primitives": [
        {
          "mode": 4,
          "attributes": {
            "POSITION": 0,
            "TEXCOORD_0": 1,
            "NORMAL": 2
          },
          "material": 0
        }
      ]
    },
    {
      "primitives": [
        {
          "mode": 4,
          "attributes": {
            "POSITION": 3,
            "TEXCOORD_0": 4,
            "NORMAL": 5
          },
          "material": 1
        }
      ]
    },
    {
      "primitives": [
        {
          "mode": 4,
          "attributes": {
            "POSITION": 6,
            "TEXCOORD_0": 7,
            "NORMAL": 8
          },
          "material": 2
        }
      ]
    },
    {
      "primitives": [
        {
          "mode": 4,
          "attributes": {
            "POSITION": 9,
            "TEXCOORD_0": 10,
            "NORMAL": 11
          },
          "material": 3
        }
      ]
    },
    {
      "primitives": [
        {
          "mode": 4,
          "attributes": {
            "POSITION": 12,
            "TEXCOORD_0": 13,
            "NORMAL": 14
          },
          "material": 4
        }
      ]
    },
    {
      "primitives": [
        {
          "mode": 4,
          "attributes": {
            "POSITION": 15,
            "TEXCOORD_0": 16,
            "NORMAL": 17
          },
          "material": 5
        }
      ]
    },
    {
      "primitives": [
        {
          "mode": 4,
          "attributes": {
            "POSITION": 18,
            "TEXCOORD_0": 19,
            "NORMAL": 20
          },
          "material": 6
        }
      ]
    },
    {
      "primitives": [
        {
          "mode": 4,
          "attributes": {
            "POSITION": 21,
            "TEXCOORD_0": 22,
            "NORMAL": 23
          },
          "material": 7
        }
      ]
    }
  ],
  "extensionsUsed": [
    "KHR_materials_unlit"
  ]
}