{
  "asset": {
    "version": "2.0",
    "generator": "GLTFExporter"
  },
  "scenes": [
    {
      "name": "Scene",
      "nodes": [
        3
      ]
    }
  ],
  "scene": 0,
  "nodes": [
    {
      "name": "mesh_0",
      "mesh": 0
    },
    {
      "name": "mesh_1",
      "mesh": 1
    },
    {
      "matrix": [
        0.05,
        0,
        0,
        0,
        0,
        -0.05,
        0,
        0,
        0,
        0,
        0.05,
        0,
        -4.415921084410107,
        8.212982944144033,
        0,
        1
      ],
      "children": [
        0,
        1
      ]
    },
    {
      "matrix": [
        0.15,
        0,
        0,
        0,
        0,
        3.3306690738754695e-17,
        0.15,
        0,
        0,
        -0.15,
        3.3306690738754695e-17,
        0,
        0.016134566282920648,
        0.1,
        -0.6036845178252552,
        1
      ],
      "name": "arrows.gltf",
      "children": [
        2
      ]
    }
  ],
  "bufferViews": [
    {
      "buffer": 0,
      "byteOffset": 0,
      "byteLength": 720,
      "target": 34962,
      "byteStride": 12
    },
    {
      "buffer": 0,
      "byteOffset": 720,
      "byteLength": 480,
      "target": 34962,
      "byteStride": 8
    },
    {
      "buffer": 0,
      "byteOffset": 1200,
      "byteLength": 720,
      "target": 34962,
      "byteStride": 12
    },
    {
      "buffer": 0,
      "byteOffset": 1920,
      "byteLength": 720,
      "target": 34962,
      "byteStride": 12
    },
    {
      "buffer": 0,
      "byteOffset": 2640,
      "byteLength": 480,
      "target": 34962,
      "byteStride": 8
    },
    {
      "buffer": 0,
      "byteOffset": 3120,
      "byteLength": 720,
      "target": 34962,
      "byteStride": 12
    }
  ],
  "buffers": [
    {
      "byteLength": 3840,
      "uri": "data:application/octet-stream;base64,"
    }
  ],
  "accessors": [
    {
      "bufferView": 0,
      "componentType": 5126,
      "count": 60,
      "max": [
        182.78399658203125,
        164.14199829101562,
        10
      ],
      "min": [
        72.85790252685547,
        0.8574219942092896,
        0
      ],
      "type": "VEC3"
    },
    {
      "bufferView": 1,
      "componentType": 5126,
      "count": 60,
      "max": [
        182.78399658203125,
        164.14199829101562
      ],
      "min": [
        0.8574219942092896,
        -9
      ],
      "type": "VEC2"
    },
    {
      "bufferView": 2,
      "componentType": 5126,
      "count": 60,
      "max": [
        0.7071084976196289,
        0.7071080803871155,
        1
      ],
      "min": [
        -0.7071181535720825,
        -0.7071114778518677,
        -1
      ],
      "type": "VEC3"
    },
    {
      "bufferView": 3,
      "componentType": 5126,
      "count": 60,
      "max": [
        109.9260025024414,
        164.14199829101562,
        10
      ],
      "min": [
        0,
        0.8574219942092896,
        0
      ],
      "type": "VEC3"
    },
    {
      "bufferView": 4,
      "componentType": 5126,
      "count": 60,
      "max": [
        164.14199829101562,
        164.14199829101562
      ],
      "min": [
        0,
        -9
      ],
      "type": "VEC2"
    },
    {
      "bufferView": 5,
      "componentType": 5126,
      "count": 60,
      "max": [
        0.7071097493171692,
        0.7071067690849304,
        1
      ],
      "min": [
        -0.7071155905723572,
        -0.7071101665496826,
        -1
      ],
      "type": "VEC3"
    }
  ],
  "materials": [
    {
      "pbrMetallicRoughness": {
        "baseColorFactor": [
          0.17647058823529413,
          0.7215686274509804,
          0.8901960784313725,
          0.8
        ],
        "metallicFactor": 0,
        "roughnessFactor": 0.9
      },
      "extensions": {
        "KHR_materials_unlit": {}
      },
      "alphaMode": "BLEND"
    },
    {
      "pbrMetallicRoughness": {
        "baseColorFactor": [
          0.17647058823529413,
          0.7215686274509804,
          0.8901960784313725,
          0.8
        ],
        "metallicFactor": 0,
        "roughnessFactor": 0.9
      },
      "extensions": {
        "KHR_materials_unlit": {}
      },
      "alphaMode": "BLEND"
    }
  ],
  "meshes": [
    {
      "primitives": [
        {
          "mode": 4,
          "attributes": {
            "POSITION": 0,
            "TEXCOORD_0": 1,
            "NORMAL": 2
          },
          "material": 0
        }
      ]
    },
    {
      "primitives": [
        {
          "mode": 4,
          "attributes": {
            "POSITION": 3,
            "TEXCOORD_0": 4,
            "NORMAL": 5
          },
          "material": 1
        }
      ]
    }
  ],
  "extensionsUsed": [
    "KHR_materials_unlit"
  ]
}