{"asset":{"version":"2.0","generator":"VECTARY"},"nodes":[{"translation":[0.004210296630859375,0.0009999999999999992,0.007415351867675789],"scale":[0.001,0.001,0.001],"rotation":[0,0,0,1],"name":"landmark","mesh":0}],"materials":[{"pbrMetallicRoughness":{"baseColorFactor":[1,1,1,1],"metallicFactor":1,"roughnessFactor":0.61},"name":"Default OBJ 9","emissiveFactor":[0,0,0],"alphaMode":"OPAQUE","doubleSided":true}],"meshes":[{"primitives":[{"mode":4,"attributes":{"POSITION":1,"NORMAL":2},"material":0,"indices":0}]}],"accessors":[{"bufferView":0,"byteOffset":0,"componentType":5125,"count":300,"type":"SCALAR"},{"bufferView":1,"byteOffset":0,"componentType":5126,"count":282,"max":[50.54220199584961,18.93604278564453,-3.3137402534484863],"min":[13.91081714630127,-1.9441487789154053,-22.22028350830078],"type":"VEC3"},{"bufferView":2,"byteOffset":0,"componentType":5126,"count":282,"type":"VEC3"}],"bufferViews":[{"buffer":0,"byteOffset":0,"byteLength":1200,"target":34963},{"buffer":0,"byteOffset":1200,"byteLength":3384,"target":34962},{"buffer":0,"byteOffset":4584,"byteLength":3384,"target":34962}],"scene":0,"scenes":[{"nodes":[0],"name":"Project Name"}],"extensionsUsed":["KHR_texture_transform"],"buffers":[{"byteLength":7968,"uri":"ProjectName.bin"}]}