{
    "asset" : {
        "generator" : "Khronos glTF Blender I/O v1.2.75",
        "version" : "2.0"
    },
    "scene" : 0,
    "scenes" : [
        {
            "name" : "Scene",
            "nodes" : [
                0,
                1,
                2,
                3,
                4,
                5,
                6
            ]
        }
    ],
    "nodes" : [
        {
            "name" : "Light",
            "rotation" : [
                0.16907575726509094,
                0.7558803558349609,
                -0.27217137813568115,
                0.570947527885437
            ],
            "translation" : [
                4.076245307922363,
                5.903861999511719,
                -1.0054539442062378
            ]
        },
        {
            "name" : "Camera",
            "rotation" : [
                0.483536034822464,
                0.33687159419059753,
                -0.20870360732078552,
                0.7804827094078064
            ],
            "translation" : [
                7.358891487121582,
                4.958309173583984,
                6.925790786743164
            ]
        },
        {
            "mesh" : 0,
            "name" : "000_Buffer_Layer",
            "rotation" : [
                0.7071068286895752,
                0,
                0,
                0.7071067094802856
            ],
            "scale" : [
                0.022024005651474,
                0.022024005651474,
                0.022024005651474
            ],
            "translation" : [
                0,
                -8.432557106018066,
                13.730934143066406
            ]
        },
        {
            "mesh" : 1,
            "name" : "001_Buffer_Layer",
            "rotation" : [
                0.7071068286895752,
                0,
                0,
                0.7071067094802856
            ],
            "scale" : [
                0.022024005651474,
                0.022024005651474,
                0.022024005651474
            ],
            "translation" : [
                0,
                -8.432557106018066,
                13.730934143066406
            ]
        },
        {
            "mesh" : 2,
            "name" : "002_Buffer_Layer",
            "rotation" : [
                0.7071068286895752,
                0,
                0,
                0.7071067094802856
            ],
            "scale" : [
                0.022024005651474,
                0.022024005651474,
                0.022024005651474
            ],
            "translation" : [
                0,
                -8.432557106018066,
                13.730934143066406
            ]
        },
        {
            "mesh" : 3,
            "name" : "003_Buffer_Layer",
            "rotation" : [
                0.7071068286895752,
                0,
                0,
                0.7071067094802856
            ],
            "scale" : [
                0.022024005651474,
                0.022024005651474,
                0.022024005651474
            ],
            "translation" : [
                0,
                -8.432557106018066,
                13.730934143066406
            ]
        },
        {
            "mesh" : 4,
            "name" : "004_Buffer_Layer",
            "rotation" : [
                0.7071068286895752,
                0,
                0,
                0.7071067094802856
            ],
            "scale" : [
                0.022024005651474,
                0.022024005651474,
                0.022024005651474
            ],
            "translation" : [
                0,
                -8.432557106018066,
                13.730934143066406
            ]
        }
    ],
    "materials" : [
        {
            "doubleSided" : true,
            "emissiveFactor" : [
                0,
                0,
                0
            ],
            "name" : "mat12_0cefcf0a-7300-4316-aba1-cf884a2b61d6",
            "pbrMetallicRoughness" : {
                "baseColorFactor" : [
                    1,
                    0.9200000166893005,
                    0.23000000417232513,
                    1
                ],
                "metallicFactor" : 0,
                "roughnessFactor" : 1
            }
        },
        {
            "doubleSided" : true,
            "emissiveFactor" : [
                0,
                0,
                0
            ],
            "name" : "mat20_4804b72d-74d1-4b10-89a2-5c22e954a36c",
            "pbrMetallicRoughness" : {
                "baseColorFactor" : [
                    0.4699999988079071,
                    0.33000001311302185,
                    0.2800000011920929,
                    1
                ],
                "metallicFactor" : 0,
                "roughnessFactor" : 1
            }
        },
        {
            "doubleSided" : true,
            "emissiveFactor" : [
                0,
                0,
                0
            ],
            "name" : "mat23_4bbcbbac-42d0-4d62-af10-f10ac5462a0e",
            "pbrMetallicRoughness" : {
                "baseColorFactor" : [
                    0.10000000149011612,
                    0.10000000149011612,
                    0.10000000149011612,
                    1
                ],
                "metallicFactor" : 0,
                "roughnessFactor" : 1
            }
        },
        {
            "doubleSided" : true,
            "emissiveFactor" : [
                0,
                0,
                0
            ],
            "name" : "mat8_cad81dd3-2b00-4e9b-900b-a29ac9ae5687",
            "pbrMetallicRoughness" : {
                "baseColorFactor" : [
                    0.9599999785423279,
                    0.25999999046325684,
                    0.20999999344348907,
                    1
                ],
                "metallicFactor" : 0,
                "roughnessFactor" : 1
            }
        },
        {
            "doubleSided" : true,
            "emissiveFactor" : [
                0,
                0,
                0
            ],
            "name" : "mat21_80b3a761-3960-4e3f-95a3-6bd6a0c1e2b0",
            "pbrMetallicRoughness" : {
                "baseColorFactor" : [
                    1,
                    1,
                    1,
                    1
                ],
                "metallicFactor" : 0,
                "roughnessFactor" : 1
            }
        }
    ],
    "meshes" : [
        {
            "name" : "000_Buffer_Layer",
            "primitives" : [
                {
                    "attributes" : {
                        "POSITION" : 0,
                        "NORMAL" : 1
                    },
                    "indices" : 2,
                    "material" : 0
                }
            ]
        },
        {
            "name" : "001_Buffer_Layer",
            "primitives" : [
                {
                    "attributes" : {
                        "POSITION" : 3,
                        "NORMAL" : 4
                    },
                    "indices" : 5,
                    "material" : 1
                }
            ]
        },
        {
            "name" : "002_Buffer_Layer",
            "primitives" : [
                {
                    "attributes" : {
                        "POSITION" : 6,
                        "NORMAL" : 7
                    },
                    "indices" : 8,
                    "material" : 2
                }
            ]
        },
        {
            "name" : "003_Buffer_Layer",
            "primitives" : [
                {
                    "attributes" : {
                        "POSITION" : 9,
                        "NORMAL" : 10
                    },
                    "indices" : 11,
                    "material" : 3
                }
            ]
        },
        {
            "name" : "004_Buffer_Layer",
            "primitives" : [
                {
                    "attributes" : {
                        "POSITION" : 12,
                        "NORMAL" : 13
                    },
                    "indices" : 14,
                    "material" : 4
                }
            ]
        }
    ],
    "accessors" : [
        {
            "bufferView" : 0,
            "componentType" : 5126,
            "count" : 541,
            "max" : [
                330.9010009765625,
                341.11199951171875,
                -769.8839721679688
            ],
            "min" : [
                -409.9079895019531,
                -1051.2939453125,
                -2043.64599609375
            ],
            "type" : "VEC3"
        },
        {
            "bufferView" : 1,
            "componentType" : 5126,
            "count" : 541,
            "type" : "VEC3"
        },
        {
            "bufferView" : 2,
            "componentType" : 5123,
            "count" : 825,
            "type" : "SCALAR"
        },
        {
            "bufferView" : 3,
            "componentType" : 5126,
            "count" : 97,
            "max" : [
                272.6390075683594,
                -89.12200164794922,
                -948.7960205078125
            ],
            "min" : [
                -337.3089904785156,
                -614.9829711914062,
                -1331.5050048828125
            ],
            "type" : "VEC3"
        },
        {
            "bufferView" : 4,
            "componentType" : 5126,
            "count" : 97,
            "type" : "VEC3"
        },
        {
            "bufferView" : 5,
            "componentType" : 5123,
            "count" : 147,
            "type" : "SCALAR"
        },
        {
            "bufferView" : 6,
            "componentType" : 5126,
            "count" : 392,
            "max" : [
                467.79901123046875,
                -439.8590087890625,
                -1551.5279541015625
            ],
            "min" : [
                -532.2000122070312,
                -973.4500122070312,
                -2091.156982421875
            ],
            "type" : "VEC3"
        },
        {
            "bufferView" : 7,
            "componentType" : 5126,
            "count" : 392,
            "type" : "VEC3"
        },
        {
            "bufferView" : 8,
            "componentType" : 5123,
            "count" : 642,
            "type" : "SCALAR"
        },
        {
            "bufferView" : 9,
            "componentType" : 5126,
            "count" : 144,
            "max" : [
                186.51400756835938,
                -771.7420043945312,
                -1522.4969482421875
            ],
            "min" : [
                -319.635986328125,
                -912.4819946289062,
                -1651.4659423828125
            ],
            "type" : "VEC3"
        },
        {
            "bufferView" : 10,
            "componentType" : 5126,
            "count" : 144,
            "type" : "VEC3"
        },
        {
            "bufferView" : 11,
            "componentType" : 5123,
            "count" : 264,
            "type" : "SCALAR"
        },
        {
            "bufferView" : 12,
            "componentType" : 5126,
            "count" : 144,
            "max" : [
                49.76499938964844,
                -860.7210083007812,
                -1694.2860107421875
            ],
            "min" : [
                -208.66799926757812,
                -921.8619995117188,
                -1756.133056640625
            ],
            "type" : "VEC3"
        },
        {
            "bufferView" : 13,
            "componentType" : 5126,
            "count" : 144,
            "type" : "VEC3"
        },
        {
            "bufferView" : 14,
            "componentType" : 5123,
            "count" : 264,
            "type" : "SCALAR"
        }
    ],
    "bufferViews" : [
        {
            "buffer" : 0,
            "byteLength" : 6492,
            "byteOffset" : 0
        },
        {
            "buffer" : 0,
            "byteLength" : 6492,
            "byteOffset" : 6492
        },
        {
            "buffer" : 0,
            "byteLength" : 1650,
            "byteOffset" : 12984
        },
        {
            "buffer" : 0,
            "byteLength" : 1164,
            "byteOffset" : 14636
        },
        {
            "buffer" : 0,
            "byteLength" : 1164,
            "byteOffset" : 15800
        },
        {
            "buffer" : 0,
            "byteLength" : 294,
            "byteOffset" : 16964
        },
        {
            "buffer" : 0,
            "byteLength" : 4704,
            "byteOffset" : 17260
        },
        {
            "buffer" : 0,
            "byteLength" : 4704,
            "byteOffset" : 21964
        },
        {
            "buffer" : 0,
            "byteLength" : 1284,
            "byteOffset" : 26668
        },
        {
            "buffer" : 0,
            "byteLength" : 1728,
            "byteOffset" : 27952
        },
        {
            "buffer" : 0,
            "byteLength" : 1728,
            "byteOffset" : 29680
        },
        {
            "buffer" : 0,
            "byteLength" : 528,
            "byteOffset" : 31408
        },
        {
            "buffer" : 0,
            "byteLength" : 1728,
            "byteOffset" : 31936
        },
        {
            "buffer" : 0,
            "byteLength" : 1728,
            "byteOffset" : 33664
        },
        {
            "buffer" : 0,
            "byteLength" : 528,
            "byteOffset" : 35392
        }
    ],
    "buffers" : [
        {
            "byteLength" : 35920,
            "uri" : "data:application/octet-stream;base64,"
        }
    ]
}
